{"glyphs":{"0":{"ha":972,"x_min":83,"x_max":889,"o":"m 779 112 q 723 46 779 112 q 486 -21 668 -21 q 194 112 304 -21 q 83 486 83 245 q 194 860 83 726 q 486 993 304 993 q 779 860 668 993 q 889 486 889 726 q 779 112 889 245 m 686 792 q 647 844 686 792 q 486 896 608 896 q 286 792 364 896 q 208 486 208 689 q 286 180 208 283 q 486 77 364 77 q 686 180 608 77 q 764 486 764 283 q 686 792 764 689 z "},"1":{"ha":519,"x_min":18,"x_max":380,"o":"m 18 751 q 21 771 11 762 l 228 930 q 243 942 231 932 q 260 956 256 953 l 273 962 q 311 972 295 972 l 367 972 q 380 958 380 972 l 380 14 q 367 0 380 0 l 269 0 q 256 14 256 0 l 256 812 l 81 692 q 61 694 68 684 l 18 751 z "},"2":{"ha":875,"x_min":57,"x_max":806,"o":"m 57 725 q 184 921 83 850 q 448 993 285 993 q 706 917 611 993 q 800 701 800 842 q 740 533 800 607 q 593 412 679 460 l 419 321 q 203 97 210 216 l 791 97 q 806 83 805 97 l 806 14 q 791 0 806 0 l 92 0 q 78 14 78 0 l 78 77 q 111 208 78 149 q 196 310 143 268 q 313 388 249 351 l 440 458 q 557 526 504 492 q 642 608 610 561 q 675 708 675 654 q 612 848 675 800 q 444 896 550 896 q 269 849 337 896 q 175 722 201 803 q 158 708 171 709 l 71 708 q 57 725 54 708 z "},"3":{"ha":905,"x_min":71,"x_max":822,"o":"m 71 248 q 85 264 68 264 l 172 264 q 189 250 184 264 q 283 123 216 170 q 460 77 351 77 q 633 123 568 77 q 697 258 697 170 q 636 395 697 346 q 461 444 575 444 l 336 444 q 322 458 323 444 l 322 528 q 336 542 322 541 l 454 542 q 612 588 554 542 q 669 718 669 633 q 608 849 669 803 q 447 896 546 896 q 282 849 349 896 q 191 722 216 802 q 174 708 186 709 l 86 708 q 72 725 69 708 q 197 921 98 848 q 451 993 296 993 q 701 919 607 993 q 794 715 794 846 q 751 578 794 636 q 619 500 708 519 q 770 415 719 480 q 822 257 822 350 q 726 53 822 126 q 464 -21 629 -21 q 198 51 299 -21 q 71 248 97 123 z "},"4":{"ha":895,"x_min":28,"x_max":852,"o":"m 28 222 l 28 292 q 69 375 28 322 l 521 930 q 590 972 554 972 l 688 972 q 701 958 701 972 l 701 306 l 839 306 q 852 292 852 306 l 852 222 q 839 208 852 208 l 701 208 l 701 14 q 688 0 701 0 l 590 0 q 576 14 576 0 l 576 208 l 41 208 q 28 222 28 208 m 153 306 l 576 306 l 576 827 l 153 306 z "},"5":{"ha":939,"x_min":113,"x_max":856,"o":"m 113 248 q 126 264 110 264 l 214 264 q 231 250 226 264 q 323 124 257 171 q 495 77 389 77 q 666 134 602 77 q 730 299 730 191 q 665 465 730 408 q 473 521 599 521 q 300 478 395 521 q 224 458 251 458 l 154 458 q 140 472 140 458 l 140 958 q 154 972 140 972 l 791 972 q 806 958 805 972 l 806 889 q 791 875 806 876 l 265 875 l 265 570 q 481 618 362 618 q 759 535 661 618 q 856 299 856 452 q 759 62 856 146 q 481 -21 661 -21 q 238 52 336 -21 q 113 248 139 124 z "},"6":{"ha":903,"x_min":83,"x_max":819,"o":"m 83 340 l 83 646 q 183 900 83 807 q 452 993 283 993 q 685 926 589 993 q 806 739 781 860 q 791 722 808 722 l 704 722 q 688 736 692 722 q 600 854 663 812 q 440 896 536 896 q 276 829 345 896 q 208 646 208 762 l 208 534 q 236 562 218 545 q 319 605 254 578 q 458 632 385 632 q 721 546 623 632 q 819 306 819 460 q 721 65 819 151 q 458 -21 623 -21 q 188 76 293 -21 q 83 340 83 172 m 455 534 q 402 534 455 534 q 279 475 350 534 q 208 312 208 415 q 278 142 208 208 q 454 77 349 77 q 627 136 560 77 q 694 306 694 195 q 627 475 694 416 q 455 534 559 534 z "},"7":{"ha":742,"x_min":14,"x_max":714,"o":"m 14 889 l 14 958 q 28 972 14 972 l 700 972 q 714 958 714 972 l 714 896 q 694 819 714 868 l 326 14 q 306 0 319 0 l 208 0 q 201 14 195 0 l 595 875 l 28 875 q 14 889 14 875 z "},"8":{"ha":930,"x_min":83,"x_max":847,"o":"m 83 257 q 138 413 83 346 q 285 500 192 479 q 154 578 196 519 q 111 715 111 636 q 203 920 111 848 q 465 993 294 993 q 728 920 636 993 q 819 715 819 847 q 777 578 819 636 q 646 500 734 519 q 793 412 739 479 q 847 257 847 346 q 749 52 847 125 q 466 -21 652 -21 q 181 52 279 -21 q 83 257 83 125 m 465 444 q 401 444 465 444 q 273 396 338 444 q 208 258 208 347 q 274 122 208 168 q 465 77 340 77 q 656 122 590 77 q 722 258 722 168 q 657 396 722 347 q 465 444 593 444 m 465 896 q 410 896 465 896 q 296 849 355 896 q 236 718 236 803 q 296 587 236 632 q 465 542 355 542 q 635 587 575 542 q 694 718 694 632 q 635 849 694 803 q 465 896 575 896 z "},"9":{"ha":903,"x_min":83,"x_max":819,"o":"m 182 427 q 133 470 182 427 q 83 667 83 513 q 182 907 83 821 q 445 993 281 993 q 714 897 610 993 q 819 632 819 800 l 819 326 q 719 72 819 165 q 452 -21 619 -21 q 218 46 314 -21 q 97 233 122 113 q 111 250 94 250 l 199 250 q 215 236 211 250 q 303 118 240 159 q 463 77 367 77 q 627 143 559 77 q 694 326 694 210 l 694 437 q 667 411 685 427 q 583 368 648 395 q 444 340 518 340 q 182 427 280 340 m 276 837 q 242 807 276 837 q 208 667 208 778 q 276 496 208 555 q 448 437 343 437 q 624 497 553 437 q 694 661 694 557 q 624 830 694 764 q 449 896 554 896 q 276 837 343 896 z "}," ":{"ha":416,"x_min":0,"x_max":0,"o":""},"!":{"ha":431,"x_min":139,"x_max":292,"o":"m 139 958 q 153 972 139 972 l 278 972 q 292 958 292 972 l 264 257 q 250 243 264 243 l 180 243 q 167 257 167 243 l 139 958 m 143 21 l 143 111 q 149 133 143 126 q 171 139 155 139 l 261 139 q 283 133 277 139 q 289 111 289 126 l 289 21 q 283 -1 289 5 q 261 -7 277 -7 l 171 -7 q 149 -1 155 -7 q 143 21 143 5 z "},"\"":{"ha":472,"x_min":69,"x_max":403,"o":"m 69 958 q 83 972 69 972 l 180 972 q 195 958 194 972 l 174 646 q 160 632 174 632 l 106 632 q 92 646 92 632 l 69 958 m 278 958 q 292 972 278 972 l 389 972 q 403 958 402 972 l 382 646 q 368 632 382 632 l 313 632 q 298 646 299 632 l 278 958 z "},"#":{"ha":1076,"x_min":41,"x_max":1035,"o":"m 41 264 l 41 334 q 56 347 41 347 l 245 347 l 318 625 l 153 625 q 139 639 139 625 l 139 708 q 153 722 139 722 l 343 722 l 403 958 q 424 972 407 972 l 507 972 q 514 958 518 972 l 454 722 l 745 722 l 806 958 q 827 972 810 972 l 909 972 q 917 958 920 972 l 856 722 l 1021 722 q 1035 708 1034 722 l 1035 639 q 1021 625 1035 625 l 831 625 l 758 347 l 924 347 q 937 334 937 347 l 937 264 q 924 250 937 250 l 733 250 l 673 14 q 653 0 669 0 l 570 0 q 562 14 559 0 l 623 250 l 332 250 l 271 14 q 250 0 267 0 l 167 0 q 160 14 156 0 l 221 250 l 56 250 q 41 264 41 250 m 357 347 l 647 347 l 720 625 l 429 625 l 357 347 z "},"$":{"ha":937,"x_min":71,"x_max":868,"o":"m 71 248 q 85 264 68 264 l 172 264 q 189 250 184 264 q 486 77 248 77 q 677 121 611 77 q 743 231 743 165 q 702 337 743 297 q 571 403 660 378 l 328 472 q 92 729 92 540 q 177 909 92 838 q 411 990 262 981 l 411 1097 q 425 1111 411 1111 l 522 1111 q 536 1097 536 1111 l 536 989 q 750 903 669 972 q 856 725 832 835 q 842 708 859 708 l 754 708 q 737 722 742 708 q 460 896 679 896 q 280 851 345 896 q 216 740 216 807 q 258 635 216 673 q 390 570 300 596 l 633 500 q 868 243 868 433 q 780 63 868 134 q 536 -18 692 -8 l 536 -125 q 522 -139 536 -138 l 425 -139 q 411 -125 412 -139 l 411 -17 q 180 66 267 -3 q 71 248 94 135 z "},"%":{"ha":1243,"x_min":56,"x_max":1187,"o":"m 122 547 q 56 736 56 616 q 122 924 56 856 q 299 993 189 993 q 475 924 408 993 q 542 736 542 856 q 475 548 542 616 q 299 479 408 479 q 122 547 189 479 m 394 866 q 376 888 394 866 q 298 909 358 909 q 203 866 239 909 q 167 736 167 822 q 203 606 167 650 q 298 562 239 562 q 394 606 358 562 q 431 736 431 650 q 394 866 431 822 m 319 14 l 799 958 q 819 972 806 972 l 917 972 q 924 958 930 972 l 444 14 q 424 0 437 0 l 326 0 q 319 14 313 0 m 1121 48 q 1087 13 1121 48 q 944 -21 1054 -21 q 768 48 835 -21 q 701 236 701 117 q 768 424 701 355 q 944 493 835 493 q 1121 424 1054 493 q 1187 236 1187 355 q 1121 48 1187 117 m 1040 366 q 1022 388 1040 366 q 945 410 1004 410 q 849 366 885 410 q 812 236 812 322 q 849 106 812 150 q 945 62 885 62 q 1040 106 1004 62 q 1076 236 1076 150 q 1040 366 1076 322 z "},"&":{"ha":1025,"x_min":69,"x_max":982,"o":"m 69 243 q 225 511 69 406 q 278 542 254 532 q 266 552 274 546 q 239 580 258 558 q 205 624 220 602 q 167 743 167 684 q 252 926 167 860 q 486 993 336 993 q 732 920 636 993 q 854 725 828 847 q 840 708 857 708 l 753 708 q 736 722 741 708 q 646 849 709 802 q 500 896 582 896 q 292 757 292 896 q 325 667 292 717 q 392 586 358 616 l 708 278 l 861 444 q 882 444 871 455 l 939 395 q 940 375 948 387 l 785 201 l 978 14 q 982 4 983 8 q 975 0 981 0 l 846 0 q 812 14 829 0 l 708 118 q 375 -21 582 -21 q 156 52 243 -21 q 69 243 69 125 m 195 243 q 247 121 195 165 q 389 77 300 77 q 632 195 525 77 l 354 465 q 302 434 334 457 q 250 388 271 411 q 212 325 229 364 q 195 243 195 286 z "},"'":{"ha":264,"x_min":69,"x_max":195,"o":"m 69 958 q 83 972 69 972 l 180 972 q 195 958 194 972 l 174 646 q 160 632 174 632 l 104 632 q 90 646 91 632 l 69 958 z "},"(":{"ha":370,"x_min":69,"x_max":367,"o":"m 244 981 l 265 1007 q 292 1021 277 1021 l 355 1021 q 367 1007 375 1021 l 347 977 q 261 778 290 866 q 213 591 232 690 q 195 396 195 492 q 213 202 195 300 q 256 33 231 104 q 349 -186 309 -121 l 367 -215 q 355 -229 374 -229 l 292 -229 q 267 -217 277 -229 q 244 -187 257 -205 q 197 -106 231 -168 q 138 22 164 -45 q 90 191 111 89 q 69 396 69 293 q 90 599 69 498 q 138 770 110 700 q 244 981 192 905 z "},")":{"ha":370,"x_min":3,"x_max":300,"o":"m 3 -215 l 22 -183 q 63 -99 33 -164 q 115 34 93 -33 q 156 201 138 102 q 175 396 175 300 q 157 590 175 492 q 114 760 139 688 q 21 978 62 907 l 3 1007 q 14 1021 -5 1021 l 78 1021 q 103 1009 93 1021 q 126 978 113 997 q 172 898 139 960 q 232 769 205 836 q 279 601 258 703 q 300 396 300 498 q 280 192 300 293 q 231 20 260 92 q 125 -189 176 -117 l 104 -215 q 78 -229 93 -229 l 14 -229 q 3 -215 -5 -229 z "},"*":{"ha":631,"x_min":60,"x_max":571,"o":"m 60 602 q 65 621 52 615 l 204 701 l 65 782 q 60 802 54 787 l 102 872 q 121 878 110 886 l 260 798 l 260 958 q 273 972 260 972 l 357 972 q 371 958 371 972 l 371 798 l 510 878 q 529 872 521 886 l 571 802 q 566 782 576 787 l 425 701 l 566 621 q 571 602 579 615 l 529 529 q 510 525 524 517 l 371 606 l 371 444 q 357 431 371 431 l 273 431 q 260 444 260 431 l 260 606 l 121 525 q 102 529 107 517 l 60 602 z "},"+":{"ha":811,"x_min":56,"x_max":755,"o":"m 56 437 l 56 507 q 69 521 56 521 l 357 521 l 357 808 q 371 822 357 822 l 440 822 q 454 808 454 822 l 454 521 l 742 521 q 755 507 755 521 l 755 437 q 742 424 755 424 l 454 424 l 454 136 q 440 122 454 123 l 371 122 q 357 136 357 122 l 357 424 l 69 424 q 56 437 56 424 z "},",":{"ha":340,"x_min":97,"x_max":243,"o":"m 97 111 q 125 139 97 139 l 215 139 q 237 133 231 139 q 243 111 243 126 l 243 28 q 229 -21 243 3 l 153 -153 l 97 -153 l 161 -7 l 125 -7 q 103 -1 110 -7 q 97 21 97 5 l 97 111 z "},"-":{"ha":700,"x_min":56,"x_max":644,"o":"m 56 410 l 56 479 q 69 493 56 493 l 631 493 q 644 479 644 493 l 644 410 q 631 396 644 396 l 69 396 q 56 410 56 396 z "},".":{"ha":340,"x_min":97,"x_max":243,"o":"m 97 111 q 125 139 97 139 l 215 139 q 237 133 231 139 q 243 111 243 126 l 243 21 q 237 -1 243 5 q 215 -7 231 -7 l 125 -7 q 103 -1 110 -7 q 97 21 97 5 l 97 111 z "},"/":{"ha":596,"x_min":31,"x_max":566,"o":"m 31 14 l 440 958 q 461 972 447 972 l 558 972 q 566 958 572 972 l 155 14 q 135 0 149 0 l 37 0 q 31 14 24 0 z "},":":{"ha":340,"x_min":97,"x_max":243,"o":"m 97 111 q 125 139 97 139 l 215 139 q 237 133 231 139 q 243 111 243 126 l 243 21 q 237 -1 243 5 q 215 -7 231 -7 l 125 -7 q 103 -1 110 -7 q 97 21 97 5 l 97 111 m 97 722 q 125 750 97 750 l 215 750 q 237 744 231 750 q 243 722 243 737 l 243 632 q 237 610 243 616 q 215 604 231 604 l 125 604 q 103 610 110 604 q 97 632 97 616 l 97 722 z "},";":{"ha":340,"x_min":97,"x_max":243,"o":"m 97 111 q 125 139 97 139 l 215 139 q 237 133 231 139 q 243 111 243 126 l 243 28 q 229 -21 243 3 l 153 -153 l 97 -153 l 161 -7 l 125 -7 q 103 -1 110 -7 q 97 21 97 5 l 97 111 m 97 722 q 125 750 97 750 l 215 750 q 237 744 231 750 q 243 722 243 737 l 243 632 q 237 610 243 616 q 215 604 231 604 l 125 604 q 103 610 110 604 q 97 632 97 616 l 97 722 z "},"<":{"ha":729,"x_min":28,"x_max":660,"o":"m 28 340 l 28 382 q 69 444 28 428 l 646 688 q 660 681 659 692 l 660 590 q 646 570 660 573 l 153 361 l 646 153 q 660 132 659 149 l 660 41 q 646 35 660 31 l 69 278 q 28 340 28 296 z "},"=":{"ha":700,"x_min":56,"x_max":644,"o":"m 56 285 l 56 354 q 69 368 56 368 l 631 368 q 644 354 644 368 l 644 285 q 631 271 644 271 l 69 271 q 56 285 56 271 m 56 534 l 56 604 q 69 618 56 618 l 631 618 q 644 604 644 618 l 644 534 q 631 521 644 521 l 69 521 q 56 534 56 521 z "},">":{"ha":729,"x_min":69,"x_max":701,"o":"m 69 41 l 69 132 q 83 153 69 149 l 576 361 l 83 570 q 69 590 70 574 l 69 681 q 83 688 69 692 l 660 444 q 701 382 701 427 l 701 340 q 660 278 701 296 l 83 35 q 69 41 69 31 z "},"?":{"ha":828,"x_min":29,"x_max":772,"o":"m 29 725 q 156 921 56 850 q 420 993 257 993 q 678 917 583 993 q 772 701 772 842 q 749 592 772 642 q 690 511 725 542 q 613 450 654 481 q 536 396 571 419 q 453 271 453 344 l 453 257 q 439 243 453 243 l 342 243 q 328 257 328 243 l 328 271 q 360 383 328 334 q 440 464 393 432 l 534 529 q 614 606 582 561 q 647 708 647 652 q 585 848 647 800 q 416 896 522 896 q 242 849 310 896 q 147 722 174 803 q 131 708 143 708 l 43 708 q 29 725 26 708 m 317 21 l 317 111 q 323 133 317 126 q 345 139 329 139 l 435 139 q 456 133 450 139 q 463 111 463 126 l 463 21 q 456 -1 463 5 q 435 -7 450 -7 l 345 -7 q 323 -1 329 -7 q 317 21 317 5 z "},"@":{"ha":1166,"x_min":69,"x_max":1097,"o":"m 216 121 q 142 193 216 121 q 69 486 69 264 q 216 850 69 708 q 584 993 363 993 q 951 846 806 993 q 1097 458 1097 699 q 1046 244 1097 315 q 917 174 996 174 q 762 257 804 174 l 757 271 q 630 184 716 210 q 555 174 595 174 q 376 224 439 174 q 313 361 313 275 q 376 498 313 447 q 555 549 439 549 l 736 549 q 692 676 736 629 q 583 722 648 722 q 431 632 481 722 q 414 618 424 618 l 340 618 q 326 635 322 618 q 583 812 383 812 q 773 740 699 812 q 847 549 847 667 l 847 375 q 917 264 847 264 q 971 309 949 264 q 993 458 993 354 q 881 783 993 664 q 584 903 768 903 q 287 788 400 903 q 174 486 174 673 q 287 184 174 298 q 583 69 400 69 q 736 97 667 69 q 750 83 750 100 l 750 21 q 736 0 750 4 q 583 -21 673 -21 q 216 121 362 -21 m 457 432 q 440 419 457 432 q 424 361 424 406 q 457 290 424 317 q 542 264 490 264 q 625 275 593 264 q 676 302 657 286 q 711 335 696 318 q 736 375 736 366 l 736 458 l 555 458 q 457 432 490 458 z "},"A":{"ha":989,"x_min":41,"x_max":948,"o":"m 43 14 l 411 930 q 473 972 428 972 l 515 972 q 578 930 562 972 l 946 14 q 948 7 948 9 q 935 0 948 0 l 835 0 q 814 14 821 0 l 717 250 l 272 250 l 175 14 q 154 0 168 0 l 54 0 q 41 7 41 0 q 43 14 41 9 m 307 347 l 682 347 l 494 812 l 307 347 z "},"B":{"ha":1007,"x_min":139,"x_max":924,"o":"m 139 14 l 139 958 q 153 972 139 972 l 521 972 q 779 904 690 972 q 868 708 868 835 q 826 577 868 635 q 701 500 785 519 q 869 418 815 481 q 924 271 924 355 q 836 70 924 140 q 576 0 747 0 l 153 0 q 139 14 139 0 m 576 97 q 799 271 799 97 q 576 444 799 444 l 264 444 l 264 97 l 576 97 m 264 542 l 534 542 q 687 584 631 542 q 743 708 743 627 q 685 832 743 790 q 521 875 627 875 l 264 875 l 264 542 z "},"C":{"ha":1022,"x_min":83,"x_max":951,"o":"m 542 -21 q 211 113 338 -21 q 83 486 83 248 q 210 858 83 724 q 534 993 336 993 q 812 919 705 993 q 945 711 918 846 q 930 694 947 694 l 843 694 q 827 708 831 694 q 534 896 768 895 q 301 792 394 896 q 208 486 208 689 q 302 180 208 283 q 542 77 396 77 q 833 264 775 77 q 850 278 838 277 l 937 278 q 951 266 951 278 q 911 148 951 205 q 542 -21 795 -21 z "},"D":{"ha":1021,"x_min":139,"x_max":951,"o":"m 139 14 l 139 958 q 153 972 139 972 l 472 972 q 820 843 688 972 q 951 486 951 713 q 820 130 951 260 q 472 0 689 0 l 153 0 q 139 14 139 0 m 264 97 l 472 97 q 728 196 630 97 q 827 486 827 296 q 729 775 827 676 q 472 875 631 875 l 264 875 l 264 97 z "},"E":{"ha":895,"x_min":139,"x_max":839,"o":"m 139 14 l 139 958 q 153 972 139 972 l 825 972 q 839 958 839 972 l 839 889 q 825 875 839 875 l 264 875 l 264 542 l 728 542 q 742 528 742 542 l 742 458 q 728 444 742 444 l 264 444 l 264 97 l 825 97 q 839 83 839 97 l 839 14 q 825 0 839 0 l 153 0 q 139 14 139 0 z "},"F":{"ha":880,"x_min":139,"x_max":839,"o":"m 139 14 l 139 958 q 153 972 139 972 l 825 972 q 839 958 839 972 l 839 889 q 825 875 839 876 l 264 875 l 264 514 l 728 514 q 742 500 741 514 l 742 431 q 728 416 742 417 l 264 416 l 264 14 q 250 0 264 0 l 153 0 q 139 14 139 0 z "},"G":{"ha":1069,"x_min":83,"x_max":958,"o":"m 534 993 q 812 919 705 993 q 945 711 918 846 q 930 694 947 694 l 843 694 q 827 708 831 694 q 534 896 768 896 q 301 792 395 896 q 208 487 208 689 q 300 181 208 285 q 527 77 392 77 q 747 163 661 77 q 833 389 833 250 l 833 403 l 550 403 q 536 416 536 403 l 536 486 q 550 500 536 500 l 945 500 q 958 486 958 500 l 958 14 q 945 0 958 0 l 868 0 q 854 14 856 0 l 840 139 q 796 85 826 115 q 734 35 766 56 q 646 -4 701 14 q 528 -21 590 -21 q 209 114 334 -21 q 83 486 83 249 q 210 858 83 724 q 534 993 336 993 z "},"H":{"ha":1069,"x_min":139,"x_max":930,"o":"m 139 14 l 139 958 q 153 972 139 972 l 250 972 q 264 958 264 972 l 264 528 l 806 528 l 806 958 q 819 972 806 972 l 917 972 q 930 958 930 972 l 930 14 q 917 0 930 0 l 819 0 q 806 14 806 0 l 806 431 l 264 431 l 264 14 q 250 0 264 0 l 153 0 q 139 14 139 0 z "},"I":{"ha":403,"x_min":139,"x_max":264,"o":"m 139 14 l 139 958 q 153 972 139 972 l 250 972 q 264 958 264 972 l 264 14 q 250 0 264 0 l 153 0 q 139 14 139 0 z "},"J":{"ha":694,"x_min":28,"x_max":570,"o":"m 28 31 l 28 98 q 41 110 28 115 q 231 77 125 77 q 390 130 336 77 q 444 298 444 183 l 444 875 l 125 875 q 111 889 111 875 l 111 958 q 125 972 111 972 l 555 972 q 570 958 569 972 l 570 298 q 485 64 570 150 q 236 -21 400 -21 q 41 12 125 -21 q 28 31 28 20 z "},"K":{"ha":962,"x_min":139,"x_max":935,"o":"m 139 14 l 139 958 q 153 972 139 972 l 250 972 q 264 958 264 972 l 264 534 l 368 534 q 562 639 493 534 l 771 958 q 791 972 781 972 l 905 972 q 917 956 928 972 l 701 625 q 534 486 621 502 q 715 347 634 471 l 930 17 q 934 6 934 12 q 920 0 935 0 l 806 0 q 785 14 795 0 l 576 334 q 382 437 507 438 l 264 437 l 264 14 q 250 0 264 0 l 153 0 q 139 14 139 0 z "},"L":{"ha":839,"x_min":139,"x_max":825,"o":"m 139 14 l 139 958 q 153 972 139 972 l 250 972 q 264 958 264 972 l 264 97 l 811 97 q 825 83 825 97 l 825 14 q 811 0 825 0 l 153 0 q 139 14 139 0 z "},"M":{"ha":1340,"x_min":139,"x_max":1202,"o":"m 139 14 l 139 958 q 153 972 139 972 l 250 972 q 313 930 290 972 l 671 249 l 1028 930 q 1090 972 1050 972 l 1187 972 q 1202 958 1201 972 l 1202 14 q 1187 0 1202 0 l 1090 0 q 1076 14 1077 0 l 1076 764 l 757 160 q 694 118 734 119 l 646 118 q 583 160 606 118 l 264 764 l 264 14 q 250 0 264 0 l 153 0 q 139 14 139 0 z "},"N":{"ha":1097,"x_min":139,"x_max":958,"o":"m 139 14 l 139 958 q 153 972 139 972 l 250 972 q 319 930 292 972 l 833 167 l 833 958 q 847 972 833 972 l 945 972 q 958 958 958 972 l 958 14 q 945 0 958 0 l 847 0 q 778 41 806 0 l 264 806 l 264 14 q 250 0 264 0 l 153 0 q 139 14 139 0 z "},"O":{"ha":1069,"x_min":83,"x_max":986,"o":"m 210 114 q 83 486 83 249 q 210 858 83 724 q 535 993 336 993 q 860 858 733 993 q 986 486 986 724 q 860 114 986 249 q 535 -21 733 -21 q 210 114 336 -21 m 768 792 q 721 844 768 792 q 535 896 675 896 q 301 792 395 896 q 208 486 208 689 q 301 180 208 283 q 535 77 395 77 q 768 180 675 77 q 861 486 861 283 q 768 792 861 689 z "},"P":{"ha":986,"x_min":139,"x_max":917,"o":"m 139 14 l 139 958 q 153 972 139 972 l 555 972 q 823 889 729 972 q 917 646 917 806 q 823 403 917 486 q 555 319 729 319 l 264 319 l 264 14 q 250 0 264 0 l 153 0 q 139 14 139 0 m 264 416 l 555 416 q 728 473 665 416 q 791 646 791 530 q 728 818 791 761 q 555 875 665 875 l 264 875 l 264 416 z "},"Q":{"ha":1069,"x_min":83,"x_max":1069,"o":"m 986 486 q 802 77 986 210 l 1055 77 q 1069 62 1069 77 l 1069 -7 q 1055 -21 1069 -21 l 534 -21 q 210 114 336 -21 q 83 486 83 249 q 210 858 83 724 q 535 993 336 993 q 860 858 733 993 q 986 486 986 724 m 768 792 q 721 844 768 792 q 535 896 675 896 q 301 792 395 896 q 208 486 208 689 q 301 180 208 283 q 535 77 395 77 q 768 180 675 77 q 861 486 861 283 q 768 792 861 689 z "},"R":{"ha":990,"x_min":139,"x_max":948,"o":"m 139 14 l 139 958 q 153 972 139 972 l 542 972 q 808 894 713 972 q 903 673 903 815 q 830 498 903 572 q 625 403 757 424 q 695 369 664 393 q 740 327 726 345 q 778 271 754 309 l 945 17 q 948 6 948 12 q 933 0 948 0 l 819 0 q 799 14 808 0 l 632 271 q 437 375 566 375 l 264 375 l 264 14 q 250 0 264 0 l 153 0 q 139 14 139 0 m 264 472 l 542 472 q 713 524 649 472 q 778 674 778 576 q 713 823 778 771 q 542 875 648 875 l 264 875 l 264 472 z "},"S":{"ha":937,"x_min":71,"x_max":868,"o":"m 71 252 q 85 264 71 264 l 172 264 q 189 250 184 264 q 486 77 248 77 q 677 121 611 77 q 743 231 743 165 q 702 337 743 297 q 571 403 660 378 l 328 472 q 92 729 92 540 q 191 919 92 846 q 457 993 290 993 q 727 921 624 993 q 856 725 829 850 q 842 708 859 708 l 754 708 q 737 722 742 708 q 460 896 679 896 q 280 851 345 896 q 216 740 216 807 q 258 635 216 673 q 390 570 300 596 l 633 500 q 868 243 868 433 q 766 52 868 125 q 486 -21 664 -21 q 203 50 309 -21 q 110 140 150 85 q 71 252 71 195 z "},"T":{"ha":875,"x_min":28,"x_max":847,"o":"m 28 889 l 28 958 q 41 972 28 972 l 833 972 q 847 958 847 972 l 847 889 q 833 875 847 876 l 493 875 l 493 14 q 479 0 493 0 l 382 0 q 368 14 368 0 l 368 875 l 41 875 q 28 889 28 876 z "},"U":{"ha":1055,"x_min":125,"x_max":930,"o":"m 125 389 l 125 958 q 139 972 125 972 l 236 972 q 250 958 250 972 l 250 389 q 328 156 250 235 q 528 77 406 77 q 728 156 650 77 q 806 389 806 235 l 806 958 q 819 972 806 972 l 917 972 q 930 958 930 972 l 930 389 q 819 89 930 198 q 528 -21 708 -21 q 236 89 347 -21 q 125 389 125 198 z "},"V":{"ha":989,"x_min":41,"x_max":946,"o":"m 43 958 q 41 965 41 962 q 54 972 41 972 l 154 972 q 175 958 168 972 l 494 160 l 814 958 q 835 972 821 972 l 935 972 q 946 958 954 972 l 578 41 q 515 0 561 0 l 473 0 q 411 41 427 0 l 43 958 z "},"W":{"ha":1419,"x_min":41,"x_max":1377,"o":"m 43 958 q 41 964 41 962 q 54 972 41 972 l 149 972 q 170 958 165 972 l 415 167 l 631 930 q 651 960 635 947 q 686 972 667 972 l 734 972 q 770 960 754 972 q 790 930 786 947 l 1004 167 l 1250 958 q 1271 972 1254 972 l 1365 972 q 1377 958 1382 972 l 1089 41 q 1026 0 1076 0 l 985 0 q 943 13 960 0 q 922 41 926 25 l 710 798 l 498 41 q 478 12 494 24 q 436 0 461 0 l 395 0 q 332 41 346 0 l 43 958 z "},"X":{"ha":936,"x_min":42,"x_max":895,"o":"m 56 0 q 42 7 39 0 q 45 14 42 10 l 395 486 l 45 958 q 42 964 42 962 q 56 972 42 972 l 163 972 q 191 958 180 972 l 468 583 l 746 958 q 774 972 757 972 l 880 972 q 895 964 895 972 q 892 958 895 962 l 541 486 l 892 14 q 895 7 895 10 q 880 0 895 0 l 774 0 q 746 14 757 0 l 468 387 l 191 14 q 163 0 180 0 l 56 0 z "},"Y":{"ha":945,"x_min":29,"x_max":917,"o":"m 903 972 q 917 962 917 972 q 914 958 917 960 l 534 326 l 534 14 q 521 0 534 0 l 424 0 q 410 14 410 0 l 410 326 l 31 958 q 29 962 29 960 l 29 966 q 41 972 33 972 l 143 972 q 171 958 161 972 l 472 457 l 774 958 q 802 972 783 972 l 903 972 z "},"Z":{"ha":896,"x_min":69,"x_max":827,"o":"m 69 14 l 69 62 q 104 139 69 90 l 673 875 l 83 875 q 69 889 69 875 l 69 958 q 83 972 69 972 l 812 972 q 827 958 827 972 l 827 909 q 791 833 827 882 l 221 97 l 812 97 q 827 83 827 97 l 827 14 q 812 0 827 0 l 83 0 q 69 14 69 0 z "},"[":{"ha":464,"x_min":139,"x_max":464,"o":"m 139 -215 l 139 1007 q 153 1021 139 1021 l 450 1021 q 464 1007 464 1021 l 464 937 q 450 924 464 924 l 264 924 l 264 -132 l 450 -132 q 464 -146 464 -132 l 464 -215 q 450 -229 464 -229 l 153 -229 q 139 -215 139 -229 z "},"\\":{"ha":596,"x_min":31,"x_max":566,"o":"m 31 958 q 37 972 24 972 l 135 972 q 155 958 149 972 l 566 14 q 558 0 572 0 l 461 0 q 440 14 447 0 l 31 958 z "},"]":{"ha":492,"x_min":0,"x_max":353,"o":"m 0 -146 q 14 -132 0 -132 l 228 -132 l 228 924 l 14 924 q 0 937 0 924 l 0 1007 q 14 1021 0 1021 l 339 1021 q 353 1007 353 1021 l 353 -215 q 339 -229 353 -229 l 14 -229 q 0 -215 0 -229 l 0 -146 z "},"^":{"ha":770,"x_min":58,"x_max":711,"o":"m 58 514 l 315 958 q 336 972 322 972 l 433 972 q 454 958 447 972 l 711 514 q 704 500 721 500 l 607 500 q 586 514 596 500 l 385 863 l 183 514 q 163 500 174 500 l 65 500 q 58 514 49 500 z "},"_":{"ha":555,"x_min":0,"x_max":555,"o":"m 0 -83 q 14 -69 0 -70 l 542 -69 q 555 -83 555 -69 l 555 -153 q 542 -167 555 -166 l 14 -167 q 0 -153 0 -167 l 0 -83 z "},"`":{"ha":249,"x_min":3,"x_max":245,"o":"m 3 958 q 9 972 -7 972 l 135 972 q 155 958 149 972 l 245 778 q 239 764 253 764 l 170 764 q 149 778 160 764 l 3 958 z "},"a":{"ha":875,"x_min":83,"x_max":750,"o":"m 162 42 q 123 74 162 42 q 83 215 83 106 q 164 388 83 325 q 389 452 244 452 l 625 452 l 625 458 q 416 667 625 667 q 306 635 351 667 q 243 555 260 604 q 227 542 239 542 l 139 542 q 125 555 123 542 q 214 707 136 650 q 416 764 293 764 q 664 684 578 764 q 750 458 750 604 l 750 14 q 736 0 750 0 l 660 0 q 644 14 646 0 l 632 90 q 596 55 624 77 q 541 18 568 32 q 375 -21 467 -21 q 162 42 240 -21 m 208 215 q 253 112 208 147 q 382 77 298 77 q 468 92 427 77 q 537 128 510 107 q 585 170 564 149 q 615 207 606 192 q 625 222 625 221 l 625 354 l 389 354 q 208 215 208 354 z "},"b":{"ha":909,"x_min":139,"x_max":827,"o":"m 139 62 l 139 958 q 153 972 139 972 l 250 972 q 264 958 264 972 l 264 722 q 472 764 354 764 q 728 662 629 764 q 827 372 827 561 q 727 81 827 183 q 465 -21 628 -21 q 294 0 376 -21 q 175 41 212 21 l 139 62 m 264 118 q 288 107 264 117 q 358 87 311 97 q 452 77 406 77 q 634 151 567 77 q 701 372 701 225 q 635 593 701 519 q 461 667 568 667 q 264 625 354 667 l 264 118 z "},"c":{"ha":869,"x_min":83,"x_max":785,"o":"m 434 -21 q 358 -21 434 -21 q 182 81 281 -21 q 83 373 83 183 q 183 663 83 562 q 432 764 282 764 q 667 702 582 764 q 778 530 751 640 q 764 514 782 513 l 676 514 q 660 528 667 514 q 444 667 596 667 q 273 593 338 667 q 208 373 208 519 q 274 152 208 227 q 434 77 339 77 q 581 111 529 77 q 667 215 633 146 q 684 229 673 229 l 771 229 q 785 218 786 229 q 785 212 785 216 q 672 40 758 101 q 434 -21 586 -21 z "},"d":{"ha":909,"x_min":83,"x_max":771,"o":"m 424 -21 q 179 80 275 -21 q 83 371 83 180 q 182 662 83 561 q 437 764 281 764 q 543 753 490 764 q 619 733 595 743 l 646 722 l 646 958 q 660 972 646 972 l 757 972 q 771 958 770 972 l 771 14 q 757 0 771 0 l 681 0 q 665 14 667 0 l 653 90 q 618 55 645 79 q 567 18 591 32 q 424 -21 504 -21 m 449 667 q 395 667 449 667 q 275 593 342 667 q 208 373 208 519 q 269 152 208 227 q 431 77 330 77 q 608 170 526 77 q 646 222 646 214 l 646 625 q 449 667 555 667 z "},"e":{"ha":889,"x_min":83,"x_max":806,"o":"m 433 -22 q 358 -22 433 -22 q 183 80 282 -22 q 83 373 83 183 q 183 663 83 562 q 443 764 282 764 q 704 661 603 764 q 806 389 806 558 l 806 354 q 778 326 806 326 l 210 326 q 284 138 221 200 q 444 75 347 75 q 667 200 597 75 q 684 214 675 214 l 771 214 q 785 197 789 214 q 671 37 757 97 q 433 -22 585 -22 m 210 424 l 681 424 q 606 600 675 533 q 443 667 538 667 q 285 605 349 667 q 210 424 221 543 z "},"f":{"ha":639,"x_min":125,"x_max":639,"o":"m 125 14 l 125 688 q 208 910 125 827 q 444 993 292 993 q 625 960 555 993 q 639 942 639 953 l 639 873 q 625 863 639 857 q 458 896 556 896 q 250 688 250 896 l 250 639 l 533 639 q 547 625 547 639 l 547 555 q 533 542 547 542 l 250 542 l 250 14 q 236 0 250 0 l 139 0 q 125 14 125 0 z "},"g":{"ha":896,"x_min":83,"x_max":771,"o":"m 437 49 q 183 144 283 49 q 83 406 83 240 q 184 667 83 571 q 444 764 285 764 q 615 743 533 764 q 733 701 697 722 l 771 681 l 771 83 q 424 -250 771 -250 q 210 -194 290 -250 q 118 -41 129 -138 q 132 -28 117 -28 l 220 -28 q 236 -41 232 -28 q 301 -122 253 -92 q 424 -153 349 -153 q 592 -96 539 -153 q 646 83 646 -40 l 646 90 q 437 49 555 49 m 458 667 q 277 598 346 667 q 208 405 208 529 q 276 213 208 281 q 450 146 345 146 q 646 187 555 146 l 646 625 q 622 636 646 627 q 551 656 599 646 q 458 667 504 667 z "},"h":{"ha":945,"x_min":139,"x_max":819,"o":"m 139 14 l 139 958 q 153 972 139 972 l 250 972 q 264 958 264 972 l 264 660 q 297 691 269 668 q 351 728 325 714 q 500 764 416 764 q 730 677 640 764 q 819 437 819 590 l 819 14 q 806 0 819 0 l 708 0 q 694 14 694 0 l 694 437 q 637 607 694 547 q 493 667 581 667 q 374 633 432 667 q 290 569 317 599 q 264 534 264 539 l 264 14 q 250 0 264 0 l 153 0 q 139 14 139 0 z "},"i":{"ha":396,"x_min":125,"x_max":271,"o":"m 125 945 q 153 972 125 972 l 243 972 q 264 966 258 972 q 271 945 271 960 l 271 854 q 264 833 271 839 q 243 827 258 827 l 153 827 q 131 833 138 827 q 125 854 125 839 l 125 945 m 135 14 l 135 729 q 149 743 135 743 l 245 743 q 260 729 260 743 l 260 14 q 245 0 260 0 l 149 0 q 135 14 135 0 z "},"j":{"ha":441,"x_min":-125,"x_max":317,"o":"m -125 -136 q -111 -125 -125 -119 q 28 -153 -42 -153 q 180 56 180 -153 l 180 729 q 195 743 180 743 l 292 743 q 306 729 305 743 l 306 56 q 234 -170 306 -89 q 41 -250 163 -250 q -92 -229 -31 -250 l -111 -222 q -125 -204 -125 -216 l -125 -136 m 171 854 l 171 945 q 177 966 171 960 q 199 972 183 972 l 289 972 q 311 966 304 972 q 317 945 317 960 l 317 854 q 311 833 317 839 q 289 827 304 827 l 199 827 q 177 833 183 827 q 171 854 171 839 z "},"k":{"ha":843,"x_min":139,"x_max":802,"o":"m 139 14 l 139 958 q 153 972 139 972 l 250 972 q 264 958 264 972 l 264 424 l 334 424 q 514 528 448 424 l 640 729 q 661 743 650 743 l 768 743 q 778 726 789 743 l 646 514 q 472 382 574 399 q 660 236 578 366 l 798 17 q 801 5 802 11 q 787 0 801 0 l 681 0 q 660 14 670 0 l 528 222 q 347 326 461 327 l 264 326 l 264 14 q 250 0 264 0 l 153 0 q 139 14 139 0 z "},"l":{"ha":403,"x_min":139,"x_max":264,"o":"m 139 14 l 139 958 q 153 972 139 972 l 250 972 q 264 958 264 972 l 264 14 q 250 0 264 0 l 153 0 q 139 14 139 0 z "},"m":{"ha":1375,"x_min":139,"x_max":1250,"o":"m 139 14 l 139 729 q 153 743 139 743 l 229 743 q 244 729 243 743 l 257 653 q 268 665 261 657 q 298 692 275 672 q 346 726 321 711 q 490 764 411 764 q 629 726 568 764 q 722 618 690 688 q 770 675 742 647 q 857 734 799 704 q 979 764 916 764 q 1176 681 1103 764 q 1250 444 1250 597 l 1250 14 q 1236 0 1250 0 l 1139 0 q 1125 14 1125 0 l 1125 444 q 1082 610 1125 554 q 978 667 1039 667 q 863 629 917 667 q 783 558 810 591 q 757 521 757 525 l 757 14 q 743 0 757 0 l 646 0 q 632 14 632 0 l 632 444 q 589 610 632 554 q 485 667 546 667 q 370 629 424 667 q 290 558 317 591 q 264 521 264 525 l 264 14 q 250 0 264 0 l 153 0 q 139 14 139 0 z "},"n":{"ha":945,"x_min":139,"x_max":819,"o":"m 139 14 l 139 729 q 153 743 139 743 l 229 743 q 244 729 243 743 l 257 653 q 292 688 265 665 q 345 726 319 711 q 500 764 412 764 q 730 677 640 764 q 819 437 819 590 l 819 14 q 806 0 819 0 l 708 0 q 694 14 694 0 l 694 437 q 637 607 694 547 q 493 667 581 667 q 414 651 453 667 q 349 615 375 636 q 304 573 323 595 q 264 521 264 530 l 264 14 q 250 0 264 0 l 153 0 q 139 14 139 0 z "},"o":{"ha":889,"x_min":83,"x_max":806,"o":"m 445 -21 q 363 -21 445 -21 q 183 81 282 -21 q 83 373 83 183 q 183 663 83 562 q 445 764 282 764 q 706 663 607 764 q 806 373 806 562 q 706 81 806 183 q 445 -21 607 -21 m 445 667 q 392 667 445 667 q 274 593 339 667 q 208 373 208 519 q 274 152 208 227 q 445 77 339 77 q 615 152 550 77 q 681 373 681 227 q 615 593 681 519 q 445 667 550 667 z "},"p":{"ha":909,"x_min":139,"x_max":827,"o":"m 139 -215 l 139 729 q 153 743 139 743 l 229 743 q 244 729 243 743 l 257 653 q 291 688 264 665 q 342 726 318 711 q 486 764 406 764 q 731 663 635 764 q 827 372 827 562 q 728 81 827 182 q 472 -21 629 -21 q 367 -11 419 -21 q 289 11 315 0 l 264 21 l 264 -215 q 250 -229 264 -229 l 153 -229 q 139 -215 139 -229 m 264 118 q 461 77 354 77 q 635 150 568 77 q 701 370 701 224 q 640 592 701 517 q 479 667 579 667 q 302 573 382 667 q 264 521 264 528 l 264 118 z "},"q":{"ha":909,"x_min":83,"x_max":771,"o":"m 437 -21 q 182 81 281 -21 q 83 371 83 182 q 183 662 83 560 q 444 764 282 764 q 615 743 533 764 q 733 701 697 722 l 771 681 l 771 -215 q 757 -229 771 -229 l 660 -229 q 646 -215 646 -229 l 646 21 q 437 -21 555 -20 m 458 667 q 276 592 343 667 q 208 371 208 518 q 275 150 208 224 q 449 77 342 77 q 646 118 556 77 l 646 625 q 622 636 646 627 q 551 656 599 646 q 458 667 504 667 z "},"r":{"ha":653,"x_min":139,"x_max":632,"o":"m 139 14 l 139 729 q 153 743 139 743 l 229 743 q 244 729 243 743 l 257 611 l 268 627 q 302 662 275 636 q 362 706 329 688 q 449 741 395 725 q 562 757 503 757 l 618 757 q 632 743 632 757 l 632 660 q 618 646 632 646 l 576 646 q 452 628 509 646 q 361 587 395 611 q 272 497 292 536 l 264 479 l 264 14 q 250 0 264 0 l 153 0 q 139 14 139 0 z "},"s":{"ha":821,"x_min":70,"x_max":751,"o":"m 71 199 q 70 204 70 202 q 85 215 70 215 l 172 215 q 189 201 180 215 q 432 77 258 77 q 578 106 530 77 q 627 179 627 135 q 594 251 627 223 q 481 298 561 279 l 307 340 q 85 555 85 395 q 168 705 85 647 q 395 764 250 764 q 628 704 539 764 q 745 545 717 644 q 730 528 749 528 l 643 528 q 627 542 635 528 q 397 667 557 667 q 257 637 304 667 q 210 563 210 607 q 242 492 210 519 q 355 444 275 464 l 529 403 q 751 187 751 350 q 667 37 751 96 q 432 -21 583 -21 q 190 38 281 -21 q 71 199 98 97 z "},"t":{"ha":653,"x_min":139,"x_max":611,"o":"m 139 285 l 139 958 q 153 972 139 972 l 250 972 q 264 958 264 972 l 264 743 l 547 743 q 561 729 561 743 l 561 660 q 547 646 561 646 l 264 646 l 264 285 q 312 129 264 182 q 444 77 359 77 q 578 97 519 77 l 597 104 q 611 93 611 110 l 611 25 q 597 7 611 14 q 431 -21 528 -21 q 218 63 297 -21 q 139 285 139 147 z "},"u":{"ha":958,"x_min":139,"x_max":819,"o":"m 139 306 l 139 729 q 153 743 139 743 l 250 743 q 264 729 264 743 l 264 306 q 321 136 264 196 q 465 77 378 77 q 544 92 505 77 q 609 128 583 107 q 655 170 635 149 q 694 222 694 213 l 694 729 q 708 743 694 743 l 806 743 q 819 729 819 743 l 819 14 q 806 0 819 0 l 729 0 q 714 14 715 0 l 701 90 q 666 54 692 77 q 613 18 639 32 q 458 -21 545 -21 q 229 66 318 -21 q 139 306 139 153 z "},"v":{"ha":850,"x_min":41,"x_max":809,"o":"m 43 729 q 41 736 41 733 q 54 743 41 743 l 147 743 q 168 729 161 743 l 425 139 l 682 729 q 703 743 689 743 l 796 743 q 809 736 809 743 q 807 729 809 733 l 509 41 q 453 0 489 0 l 397 0 q 342 41 361 0 l 43 729 z "},"w":{"ha":1214,"x_min":41,"x_max":1173,"o":"m 43 729 q 41 734 41 732 q 54 743 41 743 l 149 743 q 170 729 165 743 l 357 167 l 530 701 q 586 743 545 743 l 628 743 q 684 701 669 743 l 857 167 l 1044 729 q 1065 743 1048 743 l 1160 743 q 1173 734 1173 743 q 1171 729 1173 732 l 940 41 q 921 10 932 20 q 885 0 909 0 l 836 0 q 781 41 793 0 l 607 576 l 433 41 q 378 0 421 0 l 329 0 q 293 10 304 0 q 273 41 282 20 l 43 729 z "},"x":{"ha":787,"x_min":42,"x_max":745,"o":"m 56 0 q 43 6 45 0 q 45 14 42 12 l 323 371 l 45 729 q 42 734 43 731 q 56 743 42 743 l 155 743 q 183 729 172 743 l 393 460 l 604 729 q 632 743 615 743 l 732 743 q 745 734 745 743 q 743 729 745 731 l 463 371 l 743 14 q 745 9 745 12 q 732 0 745 0 l 632 0 q 604 14 615 0 l 393 282 l 183 14 q 155 0 172 0 l 56 0 z "},"y":{"ha":800,"x_min":28,"x_max":772,"o":"m 29 729 q 28 734 28 732 q 40 743 28 743 l 134 743 q 154 729 150 743 l 309 285 q 378 162 339 199 q 486 125 418 125 l 646 729 q 667 743 650 743 l 760 743 q 772 734 772 743 q 771 729 772 732 l 586 28 q 483 -184 547 -118 q 315 -250 419 -250 q 182 -229 243 -250 l 163 -222 q 149 -204 149 -215 l 149 -136 q 163 -125 149 -119 q 299 -153 232 -153 q 401 -114 366 -153 q 461 28 436 -75 q 293 85 353 28 q 183 286 233 142 l 29 729 z "},"z":{"ha":775,"x_min":69,"x_max":705,"o":"m 69 14 l 69 77 q 78 100 69 92 l 546 646 l 83 646 q 69 660 69 646 l 69 729 q 83 743 69 743 l 692 743 q 705 729 705 743 l 705 667 q 697 643 705 652 l 227 97 l 692 97 q 705 83 705 97 l 705 14 q 692 0 705 0 l 83 0 q 69 14 69 0 z "},"{":{"ha":492,"x_min":28,"x_max":492,"o":"m 28 361 l 28 431 q 41 444 28 444 q 142 485 103 444 q 180 604 180 525 l 180 764 q 255 954 180 886 q 458 1021 330 1021 l 478 1021 q 492 1007 492 1021 l 492 937 q 478 924 492 924 l 458 924 q 347 884 387 924 q 306 764 306 844 l 306 604 q 269 469 306 526 q 174 396 232 411 q 269 323 232 380 q 306 187 306 265 l 306 28 q 347 -93 306 -53 q 458 -132 387 -132 l 478 -132 q 492 -146 492 -132 l 492 -215 q 478 -229 492 -229 l 458 -229 q 255 -162 330 -229 q 180 28 180 -94 l 180 187 q 142 307 180 267 q 41 347 103 347 q 28 361 28 347 z "},"|":{"ha":403,"x_min":139,"x_max":264,"o":"m 139 -215 l 139 958 q 153 972 139 972 l 250 972 q 264 958 264 972 l 264 -215 q 250 -229 264 -229 l 153 -229 q 139 -215 139 -229 z "},"}":{"ha":492,"x_min":0,"x_max":464,"o":"m 0 -146 q 14 -132 0 -132 l 33 -132 q 145 -93 104 -132 q 186 28 186 -53 l 186 187 q 223 323 186 265 q 318 396 260 380 q 223 469 260 411 q 186 604 186 526 l 186 764 q 145 884 186 844 q 33 924 104 924 l 14 924 q 0 937 0 924 l 0 1007 q 14 1021 0 1021 l 33 1021 q 236 954 161 1021 q 311 764 311 886 l 311 604 q 350 485 311 525 q 450 444 389 444 q 464 431 464 444 l 464 361 q 450 347 464 347 q 350 307 389 347 q 311 187 311 267 l 311 28 q 236 -162 311 -94 q 33 -229 161 -229 l 14 -229 q 0 -215 0 -229 l 0 -146 z "},"~":{"ha":764,"x_min":56,"x_max":708,"o":"m 56 371 q 115 517 61 465 q 250 570 170 570 q 349 542 300 570 q 439 486 397 514 q 513 458 481 458 q 569 485 545 458 q 602 549 593 511 q 618 562 606 562 l 694 562 q 708 546 708 562 q 649 399 703 452 q 514 347 595 347 q 415 375 464 347 q 325 431 367 403 q 252 458 283 458 q 195 432 220 458 q 163 368 171 406 q 146 354 159 355 l 69 354 q 56 371 56 354 z "}," ":{"ha":0,"x_min":0,"x_max":0,"o":""},"¡":{"ha":347,"x_min":97,"x_max":250,"o":"m 97 -215 l 125 486 q 139 500 125 500 l 208 500 q 222 486 222 500 l 250 -215 q 236 -229 250 -229 l 111 -229 q 97 -215 97 -229 m 102 632 l 102 722 q 108 744 102 738 q 129 750 114 750 l 220 750 q 241 744 235 750 q 248 722 248 737 l 248 632 q 241 610 248 616 q 220 604 235 604 l 129 604 q 107 610 113 604 q 102 632 102 616 z "},"¢":{"ha":869,"x_min":83,"x_max":785,"o":"m 382 -17 q 164 102 244 1 q 83 373 83 203 q 164 642 83 543 q 382 760 244 741 l 382 868 q 396 882 382 882 l 493 882 q 507 868 507 882 l 507 760 q 686 687 617 746 q 778 530 754 628 q 764 514 782 513 l 676 514 q 660 528 667 514 q 444 667 596 667 q 273 593 338 667 q 208 373 208 519 q 274 152 208 227 q 434 77 339 77 q 581 111 529 77 q 667 215 633 146 q 684 229 673 229 l 771 229 q 785 212 789 229 q 507 -17 736 8 l 507 -125 q 493 -139 507 -138 l 396 -139 q 382 -125 382 -139 l 382 -17 z "},"£":{"ha":825,"x_min":56,"x_max":798,"o":"m 56 14 l 56 83 q 69 97 56 97 q 195 278 195 97 l 195 458 l 97 458 q 83 472 83 458 l 83 542 q 97 555 83 555 l 195 555 l 195 688 q 278 910 195 827 q 514 993 361 993 q 694 960 625 993 q 708 942 708 953 l 708 873 q 694 863 708 857 q 528 896 625 896 q 319 688 319 896 l 319 555 l 570 555 q 583 542 583 555 l 583 472 q 570 458 583 458 l 319 458 l 319 278 q 257 97 319 160 l 783 97 q 798 83 798 97 l 798 14 q 783 0 798 0 l 69 0 q 56 14 56 0 z "},"¤":{"ha":979,"x_min":41,"x_max":924,"o":"m 41 250 l 41 306 q 56 319 41 319 l 146 319 l 146 403 l 56 403 q 41 416 41 403 l 41 472 q 56 486 41 486 l 146 486 l 146 958 q 160 972 146 972 l 562 972 q 828 896 733 972 q 924 687 924 819 q 828 479 924 555 q 562 403 733 403 l 271 403 l 271 319 l 625 319 q 639 306 639 319 l 639 250 q 625 236 639 236 l 271 236 l 271 14 q 257 0 271 0 l 160 0 q 146 14 146 0 l 146 236 l 56 236 q 41 250 41 236 m 271 486 l 562 486 q 733 542 667 486 q 799 681 799 597 q 733 819 799 764 q 562 875 667 875 l 271 875 l 271 486 z "},"¥":{"ha":889,"x_min":30,"x_max":859,"o":"m 41 972 l 139 972 q 167 958 157 972 l 444 500 l 722 958 q 750 972 732 972 l 847 972 q 859 967 856 972 q 859 958 863 962 l 549 452 l 715 452 q 729 437 729 452 l 729 382 q 715 368 729 368 l 507 368 l 507 285 l 715 285 q 729 271 729 285 l 729 215 q 715 201 729 201 l 507 201 l 507 14 q 493 0 507 0 l 396 0 q 382 14 382 0 l 382 201 l 174 201 q 160 215 160 201 l 160 271 q 174 285 160 285 l 382 285 l 382 368 l 174 368 q 160 382 160 368 l 160 437 q 174 452 160 452 l 339 452 l 31 958 q 30 967 26 962 q 41 972 33 972 z "},"¦":{"ha":403,"x_min":139,"x_max":264,"o":"m 139 -215 l 139 271 q 153 285 139 285 l 250 285 q 264 271 264 285 l 264 -215 q 250 -229 264 -229 l 153 -229 q 139 -215 139 -229 m 139 472 l 139 958 q 153 972 139 972 l 250 972 q 264 958 264 972 l 264 472 q 250 458 264 458 l 153 458 q 139 472 139 458 z "},"§":{"ha":864,"x_min":98,"x_max":765,"o":"m 98 -31 q 113 -14 94 -14 l 200 -14 q 216 -28 208 -14 q 305 -121 250 -89 q 453 -153 359 -153 q 640 -21 640 -153 q 603 58 640 25 q 481 118 566 90 l 328 167 q 154 262 210 204 q 98 417 98 321 q 192 582 98 514 l 203 590 q 192 597 199 593 q 166 617 184 602 q 134 650 149 632 q 98 757 98 697 q 180 930 98 868 q 411 993 261 993 q 649 934 561 993 q 765 774 737 875 q 751 757 770 757 l 664 757 q 647 771 656 757 q 559 864 614 832 q 411 896 504 896 q 224 764 224 896 q 261 686 224 718 q 383 625 298 653 l 536 576 q 710 481 654 539 q 765 326 765 422 q 672 161 765 229 l 661 153 q 672 146 665 150 q 697 126 679 142 q 730 94 715 111 q 765 -14 765 47 q 684 -188 765 -125 q 453 -250 603 -250 q 214 -191 302 -250 q 98 -31 126 -132 m 224 416 q 264 323 224 358 q 383 264 304 289 l 578 201 q 621 257 602 220 q 640 326 640 293 q 600 419 640 385 q 481 479 559 454 l 286 542 q 243 487 262 523 q 224 416 224 450 z "},"¨":{"ha":431,"x_min":0,"x_max":431,"o":"m 0 861 l 0 951 q 6 973 0 966 q 28 979 12 979 l 118 979 q 140 973 134 979 q 146 951 146 966 l 146 861 q 140 840 146 846 q 118 833 134 833 l 28 833 q 6 840 12 833 q 0 861 0 846 m 403 979 q 431 951 431 979 l 431 861 q 424 840 431 846 q 403 833 418 833 l 313 833 q 291 840 297 833 q 285 861 285 846 l 285 951 q 291 973 285 966 q 313 979 297 979 l 403 979 z "},"©":{"ha":1166,"x_min":69,"x_max":1097,"o":"m 216 121 q 143 193 216 121 q 69 486 69 264 q 216 850 69 708 q 584 993 363 993 q 951 850 804 993 q 1097 486 1097 708 q 951 121 1097 264 q 584 -21 804 -21 q 216 121 363 -21 m 287 788 q 230 731 287 788 q 174 486 174 673 q 287 184 174 298 q 583 69 400 69 q 880 184 766 69 q 993 486 993 298 q 880 788 993 673 q 583 903 766 903 q 287 788 400 903 m 377 259 q 338 302 377 259 q 298 493 298 345 q 377 727 298 642 q 583 812 456 812 q 840 635 783 812 q 827 618 844 618 l 753 618 q 736 632 743 618 q 583 722 684 722 q 458 663 507 722 q 410 493 410 603 q 458 323 410 383 q 583 264 507 264 q 743 354 692 264 q 760 368 750 368 l 833 368 q 847 351 852 368 q 583 174 790 174 q 377 259 456 174 z "},"ª":{"ha":660,"x_min":97,"x_max":562,"o":"m 292 785 l 452 785 l 452 791 q 425 882 452 854 q 340 909 399 909 q 225 847 258 909 q 208 833 216 833 l 139 833 q 125 847 121 833 q 197 954 140 916 q 351 993 253 993 q 506 940 449 993 q 562 791 562 886 l 562 507 q 549 493 562 493 l 486 493 q 471 507 472 493 l 458 555 q 438 535 452 547 q 381 501 425 522 q 292 479 338 479 q 146 520 196 479 q 97 632 97 561 q 146 744 97 703 q 292 785 196 785 m 292 562 q 387 586 347 562 q 439 628 427 610 q 452 653 452 647 l 452 701 l 292 701 q 208 632 208 701 q 292 562 208 562 z "},"«":{"ha":704,"x_min":41,"x_max":675,"o":"m 41 342 l 41 380 q 69 424 41 403 l 298 653 q 326 667 312 667 l 452 667 q 467 661 464 667 q 463 650 469 656 l 174 361 l 463 72 q 467 61 469 66 q 452 56 464 56 l 326 56 q 298 69 313 56 l 69 298 q 41 342 41 322 m 319 342 l 319 380 q 347 424 319 403 l 507 583 q 534 597 521 597 l 660 597 q 675 592 672 597 q 671 581 677 586 l 452 361 l 671 142 q 675 131 677 136 q 660 125 672 125 l 534 125 q 507 139 521 125 l 347 298 q 319 342 319 322 z "},"¬":{"ha":700,"x_min":56,"x_max":644,"o":"m 56 410 l 56 479 q 69 493 56 493 l 631 493 q 644 479 644 493 l 644 222 q 631 208 644 209 l 561 208 q 547 222 547 208 l 547 396 l 69 396 q 56 410 56 396 z "},"­":{"ha":700,"x_min":56,"x_max":644,"o":"m 56 410 l 56 479 q 69 493 56 493 l 631 493 q 644 479 644 493 l 644 410 q 631 396 644 396 l 69 396 q 56 410 56 396 z "},"®":{"ha":1166,"x_min":69,"x_max":1097,"o":"m 216 121 q 143 193 216 121 q 69 486 69 264 q 216 850 69 708 q 584 993 363 993 q 951 850 804 993 q 1097 486 1097 708 q 951 121 1097 264 q 584 -21 804 -21 q 216 121 363 -21 m 287 788 q 230 731 287 788 q 174 486 174 673 q 287 184 174 298 q 583 69 400 69 q 880 184 766 69 q 993 486 993 298 q 880 788 993 673 q 583 903 766 903 q 287 788 400 903 m 340 201 l 340 785 q 354 799 340 798 l 590 799 q 770 745 707 799 q 833 614 833 690 q 781 490 833 538 q 653 437 728 443 q 714 406 690 428 q 764 347 737 385 l 861 204 q 850 187 872 187 l 750 187 q 729 201 739 187 l 632 347 q 528 403 595 403 l 452 403 l 452 201 q 437 187 452 188 l 354 187 q 340 201 340 188 m 452 493 l 590 493 q 687 524 651 493 q 722 601 722 555 q 686 677 722 647 q 590 708 650 708 l 452 708 l 452 493 z "},"¯":{"ha":389,"x_min":0,"x_max":389,"o":"m 0 896 l 0 958 q 14 972 0 972 l 375 972 q 389 958 389 972 l 389 896 q 375 882 389 882 l 14 882 q 0 896 0 882 z "},"°":{"ha":597,"x_min":56,"x_max":542,"o":"m 122 586 q 56 757 56 653 q 123 927 56 861 q 299 993 191 993 q 474 927 407 993 q 542 757 542 861 q 474 587 542 653 q 299 521 407 521 q 122 586 191 521 m 399 863 q 380 883 399 863 q 298 903 361 903 q 198 863 236 903 q 160 757 160 823 q 198 651 160 690 q 298 611 236 611 q 399 651 361 611 q 437 757 437 690 q 399 863 437 823 z "},"±":{"ha":811,"x_min":56,"x_max":755,"o":"m 56 77 l 56 146 q 69 160 56 159 l 357 160 l 357 424 l 69 424 q 56 437 56 424 l 56 507 q 69 521 56 521 l 357 521 l 357 808 q 371 822 357 822 l 440 822 q 454 808 454 822 l 454 521 l 742 521 q 755 507 755 521 l 755 437 q 742 424 755 424 l 454 424 l 454 160 l 742 160 q 755 146 755 160 l 755 77 q 742 62 755 63 l 69 62 q 56 77 56 63 z "},"²":{"ha":633,"x_min":98,"x_max":536,"o":"m 98 847 q 170 954 114 916 q 324 993 227 993 q 479 946 421 993 q 536 828 536 900 q 486 715 536 755 q 376 661 436 675 q 267 626 317 647 q 216 576 216 606 l 522 576 q 536 562 536 576 l 536 507 q 522 493 536 493 l 119 493 q 106 507 106 493 l 106 555 q 138 642 106 607 q 218 696 171 677 q 312 728 265 714 q 425 819 425 764 q 314 909 425 909 q 199 847 232 909 q 182 833 191 833 l 113 833 q 98 847 94 833 z "},"³":{"ha":627,"x_min":85,"x_max":529,"o":"m 85 625 q 98 639 81 639 l 168 639 q 184 625 176 639 q 307 562 218 562 q 418 632 418 562 q 397 676 418 659 q 342 694 376 694 l 244 694 q 231 708 231 694 l 231 764 q 244 778 231 778 l 335 778 q 411 840 411 778 q 300 909 411 909 q 184 847 218 909 q 168 833 176 833 l 98 833 q 85 847 81 833 q 156 954 100 916 q 311 993 212 993 q 466 953 410 993 q 522 847 522 913 q 498 777 522 806 q 432 736 473 747 q 502 696 475 725 q 529 625 529 667 q 473 519 529 559 q 316 479 416 479 q 85 625 116 479 z "},"´":{"ha":249,"x_min":3,"x_max":245,"o":"m 3 778 l 93 958 q 114 972 100 972 l 239 972 q 245 958 256 972 l 100 778 q 79 764 89 764 l 9 764 q 3 778 -4 764 z "},"µ":{"ha":958,"x_min":139,"x_max":819,"o":"m 139 -215 l 139 729 q 153 743 139 743 l 250 743 q 264 729 264 743 l 264 375 q 328 158 264 240 q 479 77 392 77 q 656 170 576 77 q 694 222 694 215 l 694 729 q 708 743 694 743 l 806 743 q 819 729 819 743 l 819 14 q 806 0 819 0 l 729 0 q 714 14 715 0 l 701 90 q 666 55 692 77 q 616 17 640 32 q 552 -9 591 3 q 472 -21 513 -21 q 395 -11 432 -21 q 335 15 358 0 q 272 72 295 42 l 264 83 l 264 -215 q 250 -229 264 -229 l 153 -229 q 139 -215 139 -229 z "},"¶":{"ha":908,"x_min":41,"x_max":880,"o":"m 134 458 q 87 499 134 458 q 41 674 41 541 q 134 890 41 807 q 389 972 227 972 l 867 972 q 880 958 880 972 l 880 889 q 867 875 880 876 l 736 875 l 736 -214 q 722 -228 736 -227 l 625 -228 q 611 -214 612 -228 l 611 875 l 528 875 l 528 -214 q 514 -228 528 -227 l 416 -228 q 403 -214 403 -228 l 403 375 l 389 375 q 134 458 226 375 z "},"·":{"ha":424,"x_min":139,"x_max":285,"o":"m 285 441 q 257 414 285 414 l 167 414 q 145 420 151 414 q 139 441 139 427 l 139 532 q 145 553 139 547 q 167 559 151 559 l 257 559 q 278 553 272 559 q 285 532 285 547 l 285 441 z "},"¸":{"ha":285,"x_min":0,"x_max":285,"o":"m 0 -236 q 14 -222 0 -222 l 104 -222 q 187 -174 187 -222 q 118 -125 187 -125 l 35 -125 q 21 -111 21 -125 l 21 35 q 35 49 21 49 l 104 49 q 118 35 118 49 l 118 -49 q 242 -84 199 -49 q 285 -174 285 -119 q 239 -264 285 -229 q 104 -298 193 -298 l 14 -298 q 0 -285 0 -298 l 0 -236 z "},"¹":{"ha":444,"x_min":60,"x_max":334,"o":"m 60 814 q 62 833 53 825 l 227 965 q 257 979 243 979 l 319 979 q 334 965 334 979 l 334 507 q 319 493 334 493 l 236 493 q 222 507 222 493 l 222 833 l 118 762 q 97 764 106 754 l 60 814 z "},"º":{"ha":681,"x_min":97,"x_max":583,"o":"m 517 548 q 484 514 517 548 q 340 479 450 479 q 164 548 231 479 q 97 736 97 616 q 164 924 97 856 q 340 993 231 993 q 517 924 450 993 q 583 736 583 856 q 517 548 583 616 m 436 866 q 418 888 436 866 q 340 909 400 909 q 244 866 281 909 q 208 736 208 822 q 244 606 208 650 q 340 562 281 562 q 436 606 400 562 q 472 736 472 650 q 436 866 472 822 z "},"»":{"ha":704,"x_min":29,"x_max":663,"o":"m 45 125 q 29 131 32 125 q 33 142 26 136 l 253 361 l 33 581 q 29 592 26 586 q 45 597 32 597 l 170 597 q 197 583 183 597 l 357 424 q 385 380 385 403 l 385 342 l 357 298 l 197 139 q 170 125 184 125 l 45 125 m 253 56 q 237 61 240 56 q 241 72 235 66 l 530 361 l 241 650 q 237 661 235 655 q 253 667 240 667 l 378 667 q 406 653 391 667 l 635 424 q 663 380 663 403 l 663 342 l 635 298 l 406 69 q 378 56 392 56 l 253 56 z "},"¼":{"ha":1097,"x_min":46,"x_max":1028,"o":"m 46 814 q 49 833 39 825 l 212 965 q 243 979 229 979 l 306 979 q 319 965 319 979 l 319 507 q 306 493 319 493 l 222 493 q 208 507 208 493 l 208 833 l 104 762 q 83 764 92 754 l 46 814 m 215 14 l 694 958 q 715 972 701 972 l 812 972 q 819 958 827 972 l 340 14 q 319 0 334 0 l 222 0 q 215 14 208 0 m 555 97 q 555 146 555 97 q 576 201 555 178 l 847 465 q 896 486 867 486 l 945 486 q 958 472 958 486 l 958 167 l 1014 167 q 1028 153 1028 167 q 1028 97 1028 153 q 1014 83 1028 83 l 958 83 l 958 14 q 945 0 958 0 l 861 0 q 847 14 847 0 l 847 83 l 570 83 q 555 97 555 83 m 667 167 l 847 167 l 847 340 l 667 167 z "},"½":{"ha":1139,"x_min":46,"x_max":1069,"o":"m 46 814 q 49 833 39 825 l 212 965 q 243 979 229 979 l 306 979 q 319 965 319 979 l 319 507 q 306 493 319 494 l 222 493 q 208 507 209 493 l 208 833 l 104 762 q 83 764 92 754 l 46 814 m 215 14 l 694 958 q 715 972 701 972 l 812 972 q 819 958 826 972 l 340 14 q 319 0 334 0 l 222 0 q 215 14 208 0 m 632 354 q 704 461 648 422 q 857 500 760 500 q 1012 453 954 500 q 1069 335 1069 407 q 1020 222 1069 262 q 910 168 970 182 q 750 83 750 131 l 1055 83 q 1069 69 1069 83 l 1069 14 q 1055 0 1069 0 l 653 0 q 639 14 640 0 l 639 62 q 671 149 639 114 q 751 203 704 184 q 846 236 799 221 q 958 326 958 271 q 847 416 958 416 q 732 354 765 416 q 715 340 724 340 l 646 340 q 632 354 628 340 z "},"¾":{"ha":1203,"x_min":57,"x_max":1133,"o":"m 57 625 q 71 639 53 639 l 140 639 q 157 625 149 639 q 279 562 191 562 q 390 632 390 562 q 369 676 390 659 q 314 694 349 694 l 216 694 q 203 708 203 694 l 203 764 q 216 778 203 778 l 307 778 q 383 840 383 778 q 272 909 383 909 q 157 847 191 909 q 140 833 149 833 l 71 833 q 57 847 53 833 q 128 954 72 916 q 283 993 184 993 q 438 953 382 993 q 494 847 494 913 q 470 777 494 806 q 404 736 446 747 q 474 696 447 725 q 501 625 501 667 q 445 519 501 559 q 288 479 389 479 q 57 625 88 479 m 321 14 l 800 958 q 821 972 807 972 l 918 972 q 925 958 932 972 l 446 14 q 425 0 439 0 l 328 0 q 321 14 314 0 m 661 97 l 661 146 q 682 201 661 178 l 953 465 q 1002 486 972 486 l 1050 486 q 1064 472 1064 486 l 1064 167 l 1120 167 q 1133 153 1133 167 l 1133 97 q 1120 83 1133 83 l 1064 83 l 1064 14 q 1050 0 1064 0 l 966 0 q 953 14 953 0 l 953 83 l 675 83 q 661 97 661 83 m 772 167 l 953 167 l 953 340 l 772 167 z "},"¿":{"ha":828,"x_min":56,"x_max":799,"o":"m 56 41 q 79 152 56 102 q 138 232 103 201 q 215 293 174 262 q 292 347 257 323 q 375 472 375 401 l 375 486 q 389 500 375 500 l 486 500 q 500 486 500 500 l 500 472 q 467 360 500 410 q 387 279 435 311 l 293 214 q 180 41 180 138 q 243 -105 180 -57 q 412 -153 306 -153 q 586 -106 518 -153 q 681 21 654 -60 q 697 35 685 35 l 785 35 q 799 18 802 35 q 672 -179 772 -107 q 408 -250 571 -250 q 150 -174 244 -250 q 56 41 56 -98 m 484 750 q 511 722 511 750 l 511 632 q 505 610 511 616 q 484 604 498 604 l 393 604 q 372 610 378 604 q 366 632 366 616 l 366 722 q 372 744 366 737 q 393 750 378 750 l 484 750 z "},"À":{"ha":989,"x_min":43,"x_max":946,"o":"m 43 14 l 411 930 q 473 972 428 972 l 515 972 q 578 930 562 972 l 946 14 q 935 0 953 0 l 835 0 q 814 14 821 0 l 717 250 l 272 250 l 175 14 q 154 0 168 0 l 54 0 q 43 14 36 0 m 290 1229 q 297 1243 281 1242 l 422 1243 q 443 1229 436 1243 l 533 1048 q 526 1035 540 1035 l 457 1035 q 436 1048 448 1035 l 290 1229 m 307 347 l 682 347 l 494 812 l 307 347 z "},"Á":{"ha":989,"x_min":43,"x_max":946,"o":"m 43 14 l 411 930 q 473 972 428 972 l 515 972 q 578 930 562 972 l 946 14 q 935 0 953 0 l 835 0 q 814 14 821 0 l 717 250 l 272 250 l 175 14 q 154 0 168 0 l 54 0 q 43 14 36 0 m 307 347 l 682 347 l 494 812 l 307 347 m 456 1048 l 546 1229 q 567 1243 553 1242 l 692 1243 q 699 1229 709 1243 l 553 1048 q 532 1035 542 1035 l 463 1035 q 456 1048 449 1035 z "},"Â":{"ha":989,"x_min":43,"x_max":946,"o":"m 43 14 l 411 930 q 473 972 428 972 l 515 972 q 578 930 562 972 l 946 14 q 935 0 953 0 l 835 0 q 814 14 821 0 l 717 250 l 272 250 l 175 14 q 154 0 168 0 l 54 0 q 43 14 36 0 m 290 1035 l 390 1187 q 446 1229 418 1229 l 543 1229 q 577 1216 567 1229 q 599 1187 587 1203 l 699 1035 q 692 1021 708 1021 l 625 1021 q 602 1035 616 1021 l 494 1146 l 387 1035 q 364 1021 374 1021 l 297 1021 q 290 1035 281 1021 m 307 347 l 682 347 l 494 812 l 307 347 z "},"Ã":{"ha":989,"x_min":43,"x_max":946,"o":"m 43 14 l 411 930 q 473 972 428 972 l 515 972 q 578 930 562 972 l 946 14 q 935 0 953 0 l 835 0 q 814 14 821 0 l 717 250 l 272 250 l 175 14 q 154 0 168 0 l 54 0 q 43 14 36 0 m 279 1051 q 411 1222 299 1222 q 525 1155 460 1222 q 564 1132 547 1132 q 616 1202 602 1132 q 633 1215 618 1215 l 689 1215 q 703 1198 706 1215 q 571 1028 683 1027 q 457 1095 522 1028 q 418 1118 435 1118 q 366 1048 379 1118 q 349 1035 364 1035 l 293 1035 q 279 1051 277 1034 m 307 347 l 682 347 l 494 812 l 307 347 z "},"Ä":{"ha":989,"x_min":43,"x_max":946,"o":"m 43 14 l 411 930 q 473 972 428 972 l 515 972 q 578 930 562 972 l 946 14 q 935 0 953 0 l 835 0 q 814 14 821 0 l 717 250 l 272 250 l 175 14 q 154 0 168 0 l 54 0 q 43 14 36 0 m 279 1063 l 279 1153 q 286 1175 279 1168 q 307 1181 292 1181 l 397 1181 q 419 1174 413 1181 q 425 1153 425 1168 l 425 1063 q 419 1041 425 1047 q 397 1035 412 1035 l 307 1035 q 286 1041 292 1035 q 279 1063 279 1047 m 307 347 l 682 347 l 494 812 l 307 347 m 564 1063 l 564 1153 q 570 1175 564 1168 q 591 1181 576 1181 l 682 1181 q 704 1174 698 1181 q 710 1153 710 1168 l 710 1063 q 704 1041 710 1047 q 682 1035 697 1035 l 591 1035 q 570 1041 576 1035 q 564 1063 564 1047 z "},"Å":{"ha":989,"x_min":43,"x_max":946,"o":"m 43 14 l 404 917 q 326 1048 326 957 q 373 1159 326 1116 q 493 1202 419 1202 q 613 1159 567 1202 q 660 1048 660 1117 q 583 917 660 957 l 946 14 q 935 0 953 0 l 835 0 q 814 14 821 0 l 717 250 l 272 250 l 175 14 q 154 0 168 0 l 54 0 q 43 14 36 0 m 307 347 l 682 347 l 494 812 l 307 347 m 439 1103 q 428 1092 439 1103 q 416 1048 416 1080 q 439 995 416 1017 q 493 972 461 972 q 547 995 525 972 q 570 1048 570 1017 q 547 1103 570 1080 q 493 1125 525 1125 q 439 1103 461 1125 z "},"Æ":{"ha":1354,"x_min":3,"x_max":1299,"o":"m 3 14 l 510 930 q 585 972 532 972 l 1284 972 q 1299 958 1299 972 l 1299 889 q 1284 875 1299 875 l 779 875 l 779 542 l 1187 542 q 1202 528 1202 542 l 1202 458 q 1187 444 1202 444 l 779 444 l 779 97 l 1284 97 q 1299 83 1299 97 l 1299 14 q 1284 0 1299 0 l 668 0 q 654 14 654 0 l 654 250 l 267 250 l 136 14 q 115 0 127 0 l 14 0 q 3 14 -5 0 m 319 347 l 654 347 l 654 875 l 612 875 l 319 347 z "},"Ç":{"ha":1022,"x_min":83,"x_max":951,"o":"m 486 -18 q 194 132 304 0 q 83 494 83 264 q 210 858 83 724 q 534 993 336 993 q 812 919 705 993 q 945 711 918 846 q 930 694 947 694 l 843 694 q 827 708 831 694 q 534 896 768 895 q 301 792 394 896 q 208 486 208 689 q 302 180 208 283 q 542 77 396 77 q 833 264 775 77 q 850 278 838 277 l 937 278 q 951 261 954 278 q 831 63 926 136 q 583 -20 736 -9 l 583 -56 q 707 -91 664 -56 q 750 -181 750 -126 q 704 -271 750 -236 q 570 -306 659 -306 l 479 -306 q 465 -292 466 -306 l 465 -243 q 479 -229 465 -229 l 570 -229 q 653 -181 653 -229 q 583 -132 653 -132 l 500 -132 q 486 -118 486 -132 l 486 -18 z "},"È":{"ha":895,"x_min":139,"x_max":839,"o":"m 139 14 l 139 958 q 153 972 139 972 l 825 972 q 839 958 839 972 l 839 889 q 825 875 839 875 l 264 875 l 264 542 l 728 542 q 742 528 742 542 l 742 458 q 728 444 742 444 l 264 444 l 264 97 l 825 97 q 839 83 839 97 l 839 14 q 825 0 839 0 l 153 0 q 139 14 139 0 m 298 1229 q 306 1243 289 1243 l 431 1243 q 452 1229 444 1243 l 542 1048 q 534 1035 549 1035 l 465 1035 q 444 1048 456 1035 l 298 1229 z "},"É":{"ha":895,"x_min":139,"x_max":839,"o":"m 139 14 l 139 958 q 153 972 139 972 l 825 972 q 839 958 839 972 l 839 889 q 825 875 839 875 l 264 875 l 264 542 l 728 542 q 742 528 742 542 l 742 458 q 728 444 742 444 l 264 444 l 264 97 l 825 97 q 839 83 839 97 l 839 14 q 825 0 839 0 l 153 0 q 139 14 139 0 m 422 1048 l 513 1229 q 533 1243 519 1243 l 659 1243 q 665 1229 675 1243 l 519 1048 q 498 1035 509 1035 l 429 1035 q 422 1048 415 1035 z "},"Ê":{"ha":895,"x_min":139,"x_max":839,"o":"m 139 14 l 139 958 q 153 972 139 972 l 825 972 q 839 958 839 972 l 839 889 q 825 875 839 875 l 264 875 l 264 542 l 728 542 q 742 528 742 542 l 742 458 q 728 444 742 444 l 264 444 l 264 97 l 825 97 q 839 83 839 97 l 839 14 q 825 0 839 0 l 153 0 q 139 14 139 0 m 285 1048 l 385 1202 q 401 1223 396 1217 q 440 1243 416 1243 l 538 1243 q 572 1230 562 1243 q 593 1202 582 1217 l 693 1048 q 686 1035 703 1035 l 619 1035 q 596 1048 610 1035 l 489 1160 l 382 1048 q 358 1035 368 1035 l 292 1035 q 285 1048 275 1035 z "},"Ë":{"ha":895,"x_min":139,"x_max":839,"o":"m 139 14 l 139 958 q 153 972 139 972 l 825 972 q 839 958 839 972 l 839 889 q 825 875 839 875 l 264 875 l 264 542 l 728 542 q 742 528 742 542 l 742 458 q 728 444 742 444 l 264 444 l 264 97 l 825 97 q 839 83 839 97 l 839 14 q 825 0 839 0 l 153 0 q 139 14 139 0 m 301 1055 q 273 1083 273 1055 l 273 1174 q 301 1202 273 1202 l 392 1202 q 419 1174 419 1202 l 419 1083 q 392 1055 419 1055 l 301 1055 m 586 1055 q 558 1083 558 1055 l 558 1174 q 586 1202 558 1202 l 676 1202 q 698 1195 692 1202 q 704 1174 704 1189 l 704 1083 q 698 1062 704 1068 q 676 1055 692 1055 l 586 1055 z "},"Ì":{"ha":395,"x_min":3,"x_max":256,"o":"m 3 1229 q 9 1243 -7 1243 l 135 1243 q 155 1229 149 1243 l 245 1048 q 239 1035 253 1035 l 170 1035 q 149 1048 160 1035 l 3 1229 m 131 14 l 131 958 q 144 972 131 972 l 241 972 q 256 958 256 972 l 256 14 q 241 0 256 0 l 144 0 q 131 14 131 0 z "},"Í":{"ha":395,"x_min":139,"x_max":392,"o":"m 139 14 l 139 958 q 153 972 139 972 l 250 972 q 264 958 264 972 l 264 14 q 250 0 264 0 l 153 0 q 139 14 139 0 m 149 1048 l 239 1229 q 260 1243 245 1243 l 385 1243 q 392 1229 401 1243 l 245 1048 q 225 1035 235 1035 l 155 1035 q 149 1048 142 1035 z "},"Î":{"ha":414,"x_min":3,"x_max":411,"o":"m 3 1035 l 103 1187 q 134 1222 122 1215 q 158 1229 146 1229 l 256 1229 q 290 1216 279 1229 q 311 1187 300 1203 l 411 1035 q 404 1021 420 1021 l 338 1021 q 314 1035 328 1021 l 207 1146 l 100 1035 q 77 1021 86 1021 l 9 1021 q 3 1035 -7 1021 m 144 14 l 144 958 q 158 972 144 972 l 256 972 q 269 958 269 972 l 269 14 q 256 0 269 0 l 158 0 q 144 14 144 0 z "},"Ï":{"ha":403,"x_min":-14,"x_max":416,"o":"m 104 1181 q 132 1153 132 1181 l 132 1063 q 126 1041 132 1047 q 104 1035 119 1035 l 14 1035 q -7 1041 -1 1035 q -14 1063 -14 1047 l -14 1153 q 14 1181 -14 1181 l 104 1181 m 139 14 l 139 958 q 153 972 139 972 l 250 972 q 264 958 264 972 l 264 14 q 250 0 264 0 l 153 0 q 139 14 139 0 m 271 1153 q 298 1181 271 1181 l 389 1181 q 410 1174 404 1181 q 416 1153 416 1168 l 416 1063 q 410 1041 416 1047 q 389 1035 404 1035 l 298 1035 q 277 1041 283 1035 q 271 1063 271 1047 l 271 1153 z "},"Ð":{"ha":1021,"x_min":14,"x_max":951,"o":"m 14 452 l 14 521 q 28 534 14 534 l 139 534 l 139 958 q 153 972 139 972 l 472 972 q 820 843 688 972 q 951 486 951 713 q 820 130 951 260 q 472 0 689 0 l 153 0 q 139 14 139 0 l 139 437 l 28 437 q 14 452 14 438 m 264 97 l 472 97 q 728 196 630 97 q 827 486 827 296 q 729 775 827 676 q 472 875 631 875 l 264 875 l 264 534 l 431 534 q 444 521 444 534 l 444 452 q 431 437 444 438 l 264 437 l 264 97 z "},"Ñ":{"ha":1097,"x_min":139,"x_max":958,"o":"m 139 14 l 139 958 q 153 972 139 972 l 250 972 q 319 930 292 972 l 833 167 l 833 958 q 847 972 833 972 l 945 972 q 958 958 958 972 l 958 14 q 945 0 958 0 l 847 0 q 778 41 806 0 l 264 806 l 264 14 q 250 0 264 0 l 153 0 q 139 14 139 0 m 349 1051 q 481 1222 368 1222 q 594 1155 530 1222 q 633 1132 616 1132 q 686 1202 672 1132 q 703 1215 688 1215 l 758 1215 q 772 1198 775 1215 q 640 1028 753 1028 q 526 1095 591 1028 q 488 1118 504 1118 q 435 1048 449 1118 q 418 1035 433 1035 l 363 1035 q 349 1051 346 1035 z "},"Ò":{"ha":1069,"x_min":83,"x_max":986,"o":"m 210 114 q 83 486 83 249 q 210 858 83 724 q 535 993 336 993 q 860 858 733 993 q 986 486 986 724 q 860 114 986 249 q 535 -21 733 -21 q 210 114 336 -21 m 768 792 q 721 844 768 792 q 535 896 675 896 q 301 792 395 896 q 208 486 208 689 q 301 180 208 283 q 535 77 395 77 q 768 180 675 77 q 861 486 861 283 q 768 792 861 689 m 330 1229 q 338 1243 321 1243 l 463 1243 q 484 1229 476 1243 l 574 1048 q 567 1035 581 1035 l 497 1035 q 476 1048 488 1035 l 330 1229 z "},"Ó":{"ha":1069,"x_min":83,"x_max":986,"o":"m 210 114 q 83 486 83 249 q 210 858 83 724 q 535 993 336 993 q 860 858 733 993 q 986 486 986 724 q 860 114 986 249 q 535 -21 733 -21 q 210 114 336 -21 m 768 792 q 721 844 768 792 q 535 896 675 896 q 301 792 395 896 q 208 486 208 689 q 301 180 208 283 q 535 77 395 77 q 768 180 675 77 q 861 486 861 283 q 768 792 861 689 m 482 1048 l 572 1229 q 593 1243 579 1243 l 718 1243 q 725 1229 734 1243 l 579 1048 q 558 1035 568 1035 l 489 1035 q 482 1048 475 1035 z "},"Ô":{"ha":1069,"x_min":83,"x_max":986,"o":"m 210 114 q 83 486 83 249 q 210 858 83 724 q 535 993 336 993 q 860 858 733 993 q 986 486 986 724 q 860 114 986 249 q 535 -21 733 -21 q 210 114 336 -21 m 768 792 q 721 844 768 792 q 535 896 675 896 q 301 792 395 896 q 208 486 208 689 q 301 180 208 283 q 535 77 395 77 q 768 180 675 77 q 861 486 861 283 q 768 792 861 689 m 330 1048 l 431 1202 q 462 1236 451 1230 q 486 1243 473 1243 l 583 1243 q 617 1230 606 1243 q 639 1202 628 1217 l 739 1048 q 732 1035 749 1035 l 665 1035 q 642 1048 656 1035 l 534 1160 l 428 1048 q 404 1035 414 1035 l 338 1035 q 330 1048 321 1035 z "},"Õ":{"ha":1069,"x_min":83,"x_max":986,"o":"m 210 114 q 83 486 83 249 q 210 858 83 724 q 535 993 336 993 q 860 858 733 993 q 986 486 986 724 q 860 114 986 249 q 535 -21 733 -21 q 210 114 336 -21 m 768 792 q 721 844 768 792 q 535 896 675 896 q 301 792 395 896 q 208 486 208 689 q 301 180 208 283 q 535 77 395 77 q 768 180 675 77 q 861 486 861 283 q 768 792 861 689 m 309 1072 q 440 1243 328 1243 q 503 1220 473 1243 q 554 1175 532 1197 q 593 1153 576 1153 q 646 1222 632 1153 q 663 1236 647 1236 l 718 1236 q 732 1219 734 1236 q 600 1048 713 1048 q 538 1072 567 1048 q 486 1117 509 1095 q 447 1139 464 1139 q 395 1069 408 1139 q 378 1055 393 1055 l 322 1055 q 309 1072 306 1055 z "},"Ö":{"ha":1069,"x_min":83,"x_max":986,"o":"m 210 114 q 83 486 83 249 q 210 858 83 724 q 535 993 336 993 q 860 858 733 993 q 986 486 986 724 q 860 114 986 249 q 535 -21 733 -21 q 210 114 336 -21 m 768 792 q 721 844 768 792 q 535 896 675 896 q 301 792 395 896 q 208 486 208 689 q 301 180 208 283 q 535 77 395 77 q 768 180 675 77 q 861 486 861 283 q 768 792 861 689 m 319 1090 l 319 1181 q 326 1202 319 1196 q 347 1208 332 1208 l 437 1208 q 459 1202 453 1208 q 465 1181 465 1196 l 465 1090 q 459 1069 465 1075 q 437 1063 453 1063 l 347 1063 q 326 1069 332 1063 q 319 1090 319 1075 m 722 1208 q 750 1181 750 1208 l 750 1090 q 744 1069 750 1075 q 722 1063 737 1063 l 632 1063 q 610 1069 616 1063 q 604 1090 604 1075 l 604 1181 q 610 1202 604 1196 q 632 1208 616 1208 l 722 1208 z "},"×":{"ha":665,"x_min":60,"x_max":604,"o":"m 60 249 q 60 269 52 258 l 264 472 l 60 675 q 60 694 52 685 l 110 745 q 129 745 119 754 l 332 541 l 536 745 q 555 745 546 754 l 604 694 q 604 675 614 685 l 401 472 l 604 269 q 604 249 614 258 l 555 200 q 536 200 546 191 l 332 403 l 129 200 q 110 200 119 191 l 60 249 z "},"Ø":{"ha":1069,"x_min":83,"x_max":986,"o":"m 83 486 q 210 858 83 724 q 534 993 336 993 q 724 956 639 993 l 736 979 q 757 993 743 993 l 854 993 q 861 979 868 993 l 818 897 q 986 486 986 758 q 860 114 986 249 q 534 -21 733 -21 q 346 17 431 -21 l 334 -7 q 313 -21 326 -21 l 215 -21 q 208 -7 199 -21 l 252 74 q 83 486 83 210 m 306 175 l 675 864 q 534 896 608 896 q 301 792 395 896 q 208 486 208 689 q 306 175 208 283 m 395 107 q 534 77 457 77 q 768 180 675 77 q 861 486 861 283 q 764 798 861 689 l 395 107 z "},"Ù":{"ha":1055,"x_min":125,"x_max":930,"o":"m 125 389 l 125 958 q 139 972 125 972 l 236 972 q 250 958 250 972 l 250 389 q 328 156 250 235 q 528 77 406 77 q 728 156 650 77 q 806 389 806 235 l 806 958 q 819 972 806 972 l 917 972 q 930 958 930 972 l 930 389 q 819 89 930 198 q 528 -21 708 -21 q 236 89 347 -21 q 125 389 125 198 m 351 1215 q 358 1229 342 1229 l 484 1229 q 504 1215 497 1229 l 595 1035 q 587 1021 602 1021 l 518 1021 q 497 1035 509 1021 l 351 1215 z "},"Ú":{"ha":1055,"x_min":125,"x_max":930,"o":"m 125 389 l 125 958 q 139 972 125 972 l 236 972 q 250 958 250 972 l 250 389 q 328 156 250 235 q 528 77 406 77 q 728 156 650 77 q 806 389 806 235 l 806 958 q 819 972 806 972 l 917 972 q 930 958 930 972 l 930 389 q 819 89 930 198 q 528 -21 708 -21 q 236 89 347 -21 q 125 389 125 198 m 461 1035 l 551 1215 q 572 1229 558 1229 l 697 1229 q 704 1215 714 1229 l 558 1035 q 538 1021 547 1021 l 468 1021 q 461 1035 454 1021 z "},"Û":{"ha":1055,"x_min":125,"x_max":930,"o":"m 125 389 l 125 958 q 139 972 125 972 l 236 972 q 250 958 250 972 l 250 389 q 328 156 250 235 q 528 77 406 77 q 728 156 650 77 q 806 389 806 235 l 806 958 q 819 972 806 972 l 917 972 q 930 958 930 972 l 930 389 q 819 89 930 198 q 528 -21 708 -21 q 236 89 347 -21 q 125 389 125 198 m 323 1035 l 424 1187 q 455 1222 443 1215 q 479 1229 467 1229 l 576 1229 q 610 1216 600 1229 q 632 1187 621 1203 l 732 1035 q 725 1021 741 1021 l 659 1021 q 635 1035 649 1021 l 528 1146 l 421 1035 q 397 1021 408 1021 l 330 1021 q 323 1035 314 1021 z "},"Ü":{"ha":1055,"x_min":125,"x_max":930,"o":"m 125 389 l 125 958 q 139 972 125 972 l 236 972 q 250 958 250 972 l 250 389 q 328 156 250 235 q 528 77 406 77 q 728 156 650 77 q 806 389 806 235 l 806 958 q 819 972 806 972 l 917 972 q 930 958 930 972 l 930 389 q 819 89 930 198 q 528 -21 708 -21 q 236 89 347 -21 q 125 389 125 198 m 313 1063 l 313 1153 q 319 1175 313 1168 q 340 1181 325 1181 l 431 1181 q 452 1174 446 1181 q 458 1153 458 1168 l 458 1063 q 452 1041 458 1047 q 431 1035 446 1035 l 340 1035 q 319 1041 325 1035 q 313 1063 313 1047 m 597 1063 l 597 1153 q 604 1175 597 1168 q 625 1181 610 1181 l 715 1181 q 737 1174 731 1181 q 743 1153 743 1168 l 743 1063 q 737 1041 743 1047 q 715 1035 730 1035 l 625 1035 q 604 1041 610 1035 q 597 1063 597 1047 z "},"Ý":{"ha":917,"x_min":16,"x_max":901,"o":"m 28 972 l 129 972 q 157 958 147 972 l 458 457 l 760 958 q 787 972 770 972 l 889 972 q 901 967 897 972 q 900 958 904 962 l 521 326 l 521 14 q 507 0 521 0 l 410 0 q 396 14 396 0 l 396 326 l 17 958 q 16 967 12 962 q 28 972 20 972 m 406 1035 l 496 1215 q 517 1229 503 1229 l 642 1229 q 648 1215 659 1229 l 503 1035 q 482 1021 492 1021 l 412 1021 q 406 1035 399 1021 z "},"Þ":{"ha":945,"x_min":139,"x_max":875,"o":"m 139 14 l 139 958 q 153 972 139 972 l 250 972 q 264 958 264 972 l 264 827 l 514 827 q 782 741 689 827 q 875 486 875 656 q 782 231 875 317 q 514 146 689 146 l 264 146 l 264 14 q 250 0 264 0 l 153 0 q 139 14 139 0 m 264 243 l 514 243 q 687 302 624 243 q 750 486 750 361 q 687 670 750 611 q 514 729 624 729 l 264 729 l 264 243 z "},"ß":{"ha":972,"x_min":139,"x_max":930,"o":"m 139 14 l 139 646 q 225 903 139 812 q 469 993 311 993 q 709 931 627 993 q 791 764 791 869 q 770 670 791 710 q 722 610 749 629 q 653 519 653 558 q 682 452 653 479 q 751 404 710 425 q 832 358 791 382 q 902 293 873 334 q 930 201 930 253 q 858 39 930 100 q 666 -21 786 -21 q 466 30 546 -21 q 361 171 386 81 q 375 187 357 187 l 463 187 q 479 174 471 187 q 653 77 538 77 q 767 109 728 77 q 806 185 806 140 q 777 256 806 229 q 708 305 749 283 q 626 351 667 326 q 556 415 585 375 q 528 502 528 456 q 549 585 528 549 q 597 642 571 621 q 667 757 667 699 q 472 896 667 896 q 320 832 376 896 q 264 646 264 768 l 264 14 q 250 0 264 0 l 153 0 q 139 14 139 0 z "},"à":{"ha":875,"x_min":83,"x_max":750,"o":"m 162 42 q 123 74 162 42 q 83 215 83 106 q 164 388 83 325 q 389 452 244 452 l 625 452 l 625 458 q 416 667 625 667 q 306 635 351 667 q 243 555 260 604 q 227 542 239 542 l 139 542 q 125 555 123 542 q 214 707 136 650 q 416 764 293 764 q 664 684 578 764 q 750 458 750 604 l 750 14 q 736 0 750 0 l 660 0 q 644 14 646 0 l 632 90 q 596 55 624 77 q 541 18 568 32 q 375 -21 467 -21 q 162 42 240 -21 m 208 215 q 253 112 208 147 q 382 77 298 77 q 468 92 427 77 q 537 128 510 107 q 585 170 564 149 q 615 207 606 192 q 625 222 625 221 l 625 354 l 389 354 q 208 215 208 354 m 240 1019 q 248 1034 231 1033 l 372 1034 q 393 1019 386 1034 l 484 839 q 476 825 490 825 l 407 825 q 386 839 397 825 l 240 1019 z "},"á":{"ha":875,"x_min":83,"x_max":750,"o":"m 162 42 q 123 74 162 42 q 83 215 83 106 q 164 388 83 325 q 389 452 244 452 l 625 452 l 625 458 q 416 667 625 667 q 306 635 351 667 q 243 555 260 604 q 227 542 239 542 l 139 542 q 125 555 123 542 q 214 707 136 650 q 416 764 293 764 q 664 684 578 764 q 750 458 750 604 l 750 14 q 736 0 750 0 l 660 0 q 644 14 646 0 l 632 90 q 596 55 624 77 q 541 18 568 32 q 375 -21 467 -21 q 162 42 240 -21 m 208 215 q 253 112 208 147 q 382 77 298 77 q 468 92 427 77 q 537 128 510 107 q 585 170 564 149 q 615 207 606 192 q 625 222 625 221 l 625 354 l 389 354 q 208 215 208 354 m 392 840 l 482 1021 q 503 1035 489 1034 l 628 1035 q 635 1021 645 1035 l 489 840 q 468 827 478 827 l 399 827 q 392 840 385 827 z "},"â":{"ha":875,"x_min":83,"x_max":750,"o":"m 162 42 q 123 74 162 42 q 83 215 83 106 q 164 388 83 325 q 389 452 244 452 l 625 452 l 625 458 q 416 667 625 667 q 306 635 351 667 q 243 555 260 604 q 227 542 239 542 l 139 542 q 125 555 123 542 q 214 707 136 650 q 416 764 293 764 q 664 684 578 764 q 750 458 750 604 l 750 14 q 736 0 750 0 l 660 0 q 644 14 646 0 l 632 90 q 596 55 624 77 q 541 18 568 32 q 375 -21 467 -21 q 162 42 240 -21 m 208 215 q 253 112 208 147 q 382 77 298 77 q 468 92 427 77 q 537 128 510 107 q 585 170 564 149 q 615 207 606 192 q 625 222 625 221 l 625 354 l 389 354 q 208 215 208 354 m 212 840 l 313 993 q 343 1027 331 1020 q 368 1035 355 1035 l 465 1035 q 499 1022 488 1035 q 521 993 510 1008 l 621 840 q 614 827 630 827 l 547 827 q 524 840 538 827 l 416 951 l 310 840 q 286 827 296 827 l 220 827 q 212 840 203 827 z "},"ã":{"ha":875,"x_min":83,"x_max":750,"o":"m 162 42 q 123 74 162 42 q 83 215 83 106 q 164 388 83 325 q 389 452 244 452 l 625 452 l 625 458 q 416 667 625 667 q 306 635 351 667 q 243 555 260 604 q 227 542 239 542 l 139 542 q 125 555 123 542 q 214 707 136 650 q 416 764 293 764 q 664 684 578 764 q 750 458 750 604 l 750 14 q 736 0 750 0 l 660 0 q 644 14 646 0 l 632 90 q 596 55 624 77 q 541 18 568 32 q 375 -21 467 -21 q 162 42 240 -21 m 208 215 q 253 112 208 147 q 382 77 298 77 q 468 92 427 77 q 537 128 510 107 q 585 170 564 149 q 615 207 606 192 q 625 222 625 221 l 625 354 l 389 354 q 208 215 208 354 m 218 857 q 350 1028 238 1028 q 412 1006 383 1028 q 464 960 441 983 q 503 937 486 937 q 555 1007 541 937 q 572 1021 557 1021 l 628 1021 q 642 1004 645 1021 q 510 833 622 833 q 396 901 460 833 q 357 924 374 924 q 304 854 318 924 q 288 840 303 841 l 232 840 q 218 857 216 840 z "},"ä":{"ha":875,"x_min":83,"x_max":750,"o":"m 162 42 q 123 74 162 42 q 83 215 83 106 q 164 388 83 325 q 389 452 244 452 l 625 452 l 625 458 q 416 667 625 667 q 306 635 351 667 q 243 555 260 604 q 227 542 239 542 l 139 542 q 125 555 123 542 q 214 707 136 650 q 416 764 293 764 q 664 684 578 764 q 750 458 750 604 l 750 14 q 736 0 750 0 l 660 0 q 644 14 646 0 l 632 90 q 596 55 624 77 q 541 18 568 32 q 375 -21 467 -21 q 162 42 240 -21 m 208 215 q 253 112 208 147 q 382 77 298 77 q 468 92 427 77 q 537 128 510 107 q 585 170 564 149 q 615 207 606 192 q 625 222 625 221 l 625 354 l 389 354 q 208 215 208 354 m 215 889 l 215 979 q 221 1001 215 995 q 243 1007 228 1007 l 334 1007 q 355 1001 349 1007 q 361 979 361 994 l 361 889 q 355 867 361 873 q 334 861 349 861 l 243 861 q 221 867 227 861 q 215 889 215 873 m 500 889 l 500 979 q 506 1001 500 995 q 528 1007 513 1007 l 618 1007 q 640 1001 633 1007 q 646 979 646 994 l 646 889 q 640 867 646 873 q 618 861 633 861 l 528 861 q 506 867 512 861 q 500 889 500 873 z "},"å":{"ha":875,"x_min":83,"x_max":750,"o":"m 162 42 q 123 74 162 42 q 83 215 83 106 q 164 388 83 325 q 389 452 244 452 l 625 452 l 625 458 q 416 667 625 667 q 306 635 351 667 q 243 555 260 604 q 227 542 239 542 l 139 542 q 125 555 123 542 q 214 707 136 650 q 416 764 293 764 q 664 684 578 764 q 750 458 750 604 l 750 14 q 736 0 750 0 l 660 0 q 644 14 646 0 l 632 90 q 596 55 624 77 q 541 18 568 32 q 375 -21 467 -21 q 162 42 240 -21 m 208 215 q 253 112 208 147 q 382 77 298 77 q 468 92 427 77 q 537 128 510 107 q 585 170 564 149 q 615 207 606 192 q 625 222 625 221 l 625 354 l 389 354 q 208 215 208 354 m 310 848 q 287 869 310 848 q 264 958 264 890 q 310 1068 264 1026 q 430 1111 357 1111 q 551 1068 504 1111 q 597 958 597 1026 q 551 848 597 890 q 430 806 504 806 q 310 848 357 806 m 377 1012 q 366 1000 377 1012 q 354 958 354 989 q 377 905 354 928 q 431 882 400 882 q 484 905 461 882 q 507 958 507 928 q 484 1012 507 989 q 431 1035 461 1035 q 377 1012 400 1035 z "},"æ":{"ha":1417,"x_min":83,"x_max":1333,"o":"m 372 -21 q 306 -21 372 -21 q 162 42 240 -21 q 83 209 83 104 q 164 376 83 314 q 389 437 244 437 l 625 437 l 625 458 q 416 667 625 667 q 306 635 351 667 q 243 555 260 604 q 227 542 239 542 l 139 542 q 125 555 123 542 q 215 707 136 650 q 416 764 293 764 q 701 618 608 764 q 986 764 794 764 q 1235 667 1136 764 q 1333 403 1333 570 l 1333 368 q 1305 340 1333 340 l 750 340 q 822 141 760 207 q 972 75 885 75 q 1194 200 1125 75 q 1211 214 1203 214 l 1299 214 q 1312 197 1317 214 q 1198 37 1284 97 q 972 -22 1112 -22 q 684 134 775 -22 q 606 59 658 99 q 372 -21 504 -21 m 382 77 q 468 92 427 77 q 537 128 510 107 q 585 170 564 149 q 615 207 606 192 q 625 222 625 221 l 625 340 l 389 340 q 255 306 301 340 q 208 208 208 271 q 253 111 208 146 q 382 77 298 77 m 750 437 l 1208 437 q 1136 602 1203 538 q 980 667 1068 667 q 826 607 892 667 q 750 437 760 547 z "},"ç":{"ha":869,"x_min":83,"x_max":785,"o":"m 361 -12 q 158 111 233 12 q 83 386 83 210 q 183 663 83 562 q 432 764 282 764 q 667 702 582 764 q 778 530 751 640 q 764 514 782 513 l 676 514 q 660 528 667 514 q 444 667 596 667 q 273 593 338 667 q 208 373 208 519 q 274 152 208 227 q 434 77 339 77 q 581 111 529 77 q 667 215 633 146 q 684 229 673 229 l 771 229 q 785 212 789 229 q 458 -21 728 -16 l 458 -56 q 582 -91 539 -56 q 625 -181 625 -126 q 579 -271 625 -236 q 444 -306 533 -306 l 354 -306 q 340 -292 340 -306 l 340 -243 q 354 -229 340 -229 l 444 -229 q 528 -181 528 -229 q 458 -132 528 -132 l 375 -132 q 361 -118 361 -132 l 361 -12 z "},"è":{"ha":889,"x_min":83,"x_max":806,"o":"m 433 -22 q 358 -22 433 -22 q 183 80 282 -22 q 83 373 83 183 q 183 663 83 562 q 443 764 282 764 q 704 661 603 764 q 806 389 806 558 l 806 354 q 778 326 806 326 l 210 326 q 284 138 221 200 q 444 75 347 75 q 667 200 597 75 q 684 214 675 214 l 771 214 q 785 197 789 214 q 671 37 757 97 q 433 -22 585 -22 m 210 424 l 681 424 q 606 600 675 533 q 443 667 538 667 q 285 605 349 667 q 210 424 221 543 m 240 1021 q 248 1035 231 1035 l 372 1035 q 393 1021 386 1035 l 484 840 q 476 827 490 827 l 407 827 q 386 840 397 827 l 240 1021 z "},"é":{"ha":889,"x_min":83,"x_max":806,"o":"m 433 -22 q 358 -22 433 -22 q 183 80 282 -22 q 83 373 83 183 q 183 663 83 562 q 443 764 282 764 q 704 661 603 764 q 806 389 806 558 l 806 354 q 778 326 806 326 l 210 326 q 284 138 221 200 q 444 75 347 75 q 667 200 597 75 q 684 214 675 214 l 771 214 q 785 197 789 214 q 671 37 757 97 q 433 -22 585 -22 m 210 424 l 681 424 q 606 600 675 533 q 443 667 538 667 q 285 605 349 667 q 210 424 221 543 m 392 840 l 482 1021 q 503 1035 489 1035 l 628 1035 q 635 1021 644 1035 l 489 840 q 468 827 478 827 l 399 827 q 392 840 385 827 z "},"ê":{"ha":889,"x_min":83,"x_max":806,"o":"m 433 -22 q 358 -22 433 -22 q 183 80 282 -22 q 83 373 83 183 q 183 663 83 562 q 443 764 282 764 q 704 661 603 764 q 806 389 806 558 l 806 354 q 778 326 806 326 l 210 326 q 284 138 221 200 q 444 75 347 75 q 667 200 597 75 q 684 214 675 214 l 771 214 q 785 197 789 214 q 671 37 757 97 q 433 -22 585 -22 m 210 424 l 681 424 q 606 600 675 533 q 443 667 538 667 q 285 605 349 667 q 210 424 221 543 m 240 839 l 340 991 q 371 1026 359 1019 q 396 1034 383 1034 l 493 1034 q 527 1020 515 1034 q 549 991 538 1007 l 648 839 q 642 825 659 825 l 575 825 q 551 839 566 825 l 444 950 l 338 839 q 314 825 323 825 l 248 825 q 240 839 231 825 z "},"ë":{"ha":889,"x_min":83,"x_max":806,"o":"m 433 -22 q 358 -22 433 -22 q 183 80 282 -22 q 83 373 83 183 q 183 663 83 562 q 443 764 282 764 q 704 661 603 764 q 806 389 806 558 l 806 354 q 778 326 806 326 l 210 326 q 284 138 221 200 q 444 75 347 75 q 667 200 597 75 q 684 214 675 214 l 771 214 q 785 197 789 214 q 671 37 757 97 q 433 -22 585 -22 m 210 424 l 681 424 q 606 600 675 533 q 443 667 538 667 q 285 605 349 667 q 210 424 221 543 m 334 1007 q 361 979 361 1007 l 361 889 q 355 867 361 873 q 334 861 349 861 l 243 861 q 221 867 228 861 q 215 889 215 873 l 215 979 q 243 1007 215 1007 l 334 1007 m 500 979 q 528 1007 500 1007 l 618 1007 q 640 1001 633 1007 q 646 979 646 994 l 646 889 q 640 867 646 873 q 618 861 633 861 l 528 861 q 506 867 513 861 q 500 889 500 873 l 500 979 z "},"ì":{"ha":408,"x_min":17,"x_max":269,"o":"m 17 1035 q 24 1048 7 1048 l 149 1048 q 170 1035 162 1048 l 260 854 q 253 840 267 841 l 183 840 q 163 854 174 840 l 17 1035 m 144 14 l 144 729 q 158 743 144 743 l 256 743 q 269 729 269 743 l 269 14 q 256 0 269 0 l 158 0 q 144 14 144 0 z "},"í":{"ha":408,"x_min":139,"x_max":475,"o":"m 139 14 q 139 729 139 14 q 153 743 139 743 l 250 743 q 264 729 264 743 l 264 14 q 250 0 264 0 l 153 0 q 139 14 139 0 m 232 854 l 322 1035 q 343 1048 329 1048 l 468 1048 q 475 1035 485 1048 l 329 854 q 309 840 318 841 l 239 840 q 232 854 225 841 z "},"î":{"ha":414,"x_min":3,"x_max":411,"o":"m 3 825 l 103 978 q 134 1013 122 1006 q 158 1019 146 1019 l 256 1019 q 290 1006 279 1019 q 311 978 300 993 l 411 825 q 404 811 420 812 l 338 811 q 314 825 328 811 l 207 936 l 100 825 q 77 811 86 812 l 9 811 q 3 825 -7 812 m 144 14 l 144 729 q 158 743 144 743 l 256 743 q 269 729 269 743 l 269 14 q 256 0 269 0 l 158 0 q 144 14 144 0 z "},"ï":{"ha":444,"x_min":7,"x_max":437,"o":"m 7 861 l 7 951 q 13 973 7 967 q 35 979 20 979 l 125 979 q 146 973 140 979 q 153 951 153 966 l 153 861 q 146 840 153 846 q 125 833 140 833 l 35 833 q 13 840 19 833 q 7 861 7 846 m 160 14 l 160 729 q 174 743 160 743 l 271 743 q 285 729 284 743 l 285 14 q 271 0 285 0 l 174 0 q 160 14 160 0 m 292 861 l 292 951 q 298 973 292 967 q 319 979 304 979 l 410 979 q 431 973 425 979 q 437 951 437 966 l 437 861 q 431 840 437 846 q 410 833 425 833 l 319 833 q 298 840 304 833 q 292 861 292 846 z "},"ð":{"ha":889,"x_min":83,"x_max":806,"o":"m 445 -21 q 365 -21 445 -21 q 184 74 285 -21 q 83 331 83 170 q 182 586 83 492 q 431 681 281 681 q 648 605 559 681 q 677 575 669 587 l 688 562 q 545 835 676 736 l 457 730 q 437 729 450 721 l 396 765 q 395 785 385 774 l 469 875 q 334 896 414 896 l 306 896 q 292 909 292 896 l 292 979 q 306 993 292 993 l 334 993 q 538 956 453 993 l 629 1064 q 648 1065 636 1075 l 690 1029 q 692 1010 703 1023 l 610 913 q 806 444 806 765 l 806 361 q 706 79 806 179 q 445 -21 606 -21 m 448 583 q 395 583 448 583 q 275 517 342 583 q 208 331 208 450 q 275 144 208 212 q 445 77 342 77 q 614 144 547 77 q 681 333 681 212 q 617 518 681 453 q 448 583 554 583 z "},"ñ":{"ha":945,"x_min":139,"x_max":819,"o":"m 139 14 q 139 729 139 14 q 153 743 139 743 l 229 743 q 244 729 243 743 l 257 653 l 269 667 q 502 764 363 764 q 730 677 640 764 q 819 437 819 590 l 819 14 q 806 0 819 0 l 708 0 q 694 14 694 0 l 694 437 q 637 607 694 547 q 493 667 581 667 q 414 651 453 667 q 349 615 375 636 q 294 563 323 595 q 264 521 264 530 l 264 14 q 250 0 264 0 l 153 0 q 139 14 139 0 m 267 857 q 399 1028 286 1028 q 513 960 448 1028 q 551 937 534 937 q 604 1007 590 937 q 621 1021 606 1021 l 676 1021 q 690 1004 693 1021 q 558 833 671 833 q 445 901 509 833 q 406 924 422 924 q 353 854 367 924 q 336 840 351 840 l 281 840 q 267 857 264 840 z "},"ò":{"ha":889,"x_min":83,"x_max":806,"o":"m 445 -21 q 363 -21 445 -21 q 183 81 282 -21 q 83 373 83 183 q 183 663 83 562 q 445 764 282 764 q 706 663 607 764 q 806 373 806 562 q 706 81 806 183 q 445 -21 607 -21 m 445 667 q 392 667 445 667 q 274 593 339 667 q 208 373 208 519 q 274 152 208 227 q 445 77 339 77 q 615 152 550 77 q 681 373 681 227 q 615 593 681 519 q 445 667 550 667 m 240 1021 q 248 1035 231 1035 l 372 1035 q 393 1021 386 1035 l 484 840 q 476 827 490 827 l 407 827 q 386 840 397 827 l 240 1021 z "},"ó":{"ha":889,"x_min":83,"x_max":806,"o":"m 445 -21 q 363 -21 445 -21 q 183 81 282 -21 q 83 373 83 183 q 183 663 83 562 q 445 764 282 764 q 706 663 607 764 q 806 373 806 562 q 706 81 806 183 q 445 -21 607 -21 m 445 667 q 392 667 445 667 q 274 593 339 667 q 208 373 208 519 q 274 152 208 227 q 445 77 339 77 q 615 152 550 77 q 681 373 681 227 q 615 593 681 519 q 445 667 550 667 m 378 840 l 468 1021 q 489 1035 475 1035 l 614 1035 q 621 1021 631 1035 l 475 840 q 454 827 464 827 l 385 827 q 378 840 371 827 z "},"ô":{"ha":889,"x_min":83,"x_max":806,"o":"m 445 -21 q 363 -21 445 -21 q 183 81 282 -21 q 83 373 83 183 q 183 663 83 562 q 445 764 282 764 q 706 663 607 764 q 806 373 806 562 q 706 81 806 183 q 445 -21 607 -21 m 445 667 q 392 667 445 667 q 274 593 339 667 q 208 373 208 519 q 274 152 208 227 q 445 77 339 77 q 615 152 550 77 q 681 373 681 227 q 615 593 681 519 q 445 667 550 667 m 240 839 l 340 991 q 371 1026 359 1019 q 396 1034 383 1034 l 493 1034 q 527 1020 515 1034 q 549 991 538 1007 l 648 839 q 642 825 659 825 l 575 825 q 551 839 566 825 l 444 950 l 338 839 q 314 825 323 825 l 248 825 q 240 839 231 825 z "},"õ":{"ha":889,"x_min":83,"x_max":806,"o":"m 445 -21 q 363 -21 445 -21 q 183 81 282 -21 q 83 373 83 183 q 183 663 83 562 q 445 764 282 764 q 706 663 607 764 q 806 373 806 562 q 706 81 806 183 q 445 -21 607 -21 m 445 667 q 392 667 445 667 q 274 593 339 667 q 208 373 208 519 q 274 152 208 227 q 445 77 339 77 q 615 152 550 77 q 681 373 681 227 q 615 593 681 519 q 445 667 550 667 m 232 857 q 364 1028 252 1028 q 477 960 413 1028 q 517 937 500 937 q 570 1007 555 937 q 586 1021 571 1021 l 642 1021 q 656 1004 659 1021 q 524 833 636 833 q 410 901 475 833 q 371 924 387 924 q 318 854 332 924 q 301 840 317 840 l 245 840 q 232 857 229 840 z "},"ö":{"ha":889,"x_min":83,"x_max":806,"o":"m 445 -21 q 363 -21 445 -21 q 183 81 282 -21 q 83 373 83 183 q 183 663 83 562 q 445 764 282 764 q 706 663 607 764 q 806 373 806 562 q 706 81 806 183 q 445 -21 607 -21 m 445 667 q 392 667 445 667 q 274 593 339 667 q 208 373 208 519 q 274 152 208 227 q 445 77 339 77 q 615 152 550 77 q 681 373 681 227 q 615 593 681 519 q 445 667 550 667 m 229 889 l 229 979 q 235 1001 229 994 q 257 1007 241 1007 l 347 1007 q 369 1001 363 1007 q 375 979 375 994 l 375 889 q 369 867 375 873 q 347 861 363 861 l 257 861 q 235 867 241 861 q 229 889 229 873 m 632 1007 q 660 979 660 1007 l 660 889 q 653 867 660 873 q 632 861 647 861 l 542 861 q 520 867 526 861 q 514 889 514 873 l 514 979 q 520 1001 514 994 q 542 1007 526 1007 l 632 1007 z "},"÷":{"ha":798,"x_min":56,"x_max":734,"o":"m 56 437 l 56 507 q 69 521 56 521 l 721 521 q 734 507 734 521 l 734 437 q 721 424 734 424 l 69 424 q 56 437 56 424 m 350 125 q 322 153 322 125 l 322 243 q 329 264 322 258 q 350 271 335 271 l 440 271 q 462 264 456 271 q 468 243 468 258 l 468 153 q 462 131 468 138 q 440 125 456 125 l 350 125 m 350 673 q 322 701 322 673 l 322 791 q 329 813 322 807 q 350 819 335 819 l 440 819 q 462 813 456 819 q 468 791 468 807 l 468 701 q 462 680 468 686 q 440 673 456 673 l 350 673 z "},"ø":{"ha":889,"x_min":83,"x_max":806,"o":"m 204 60 q 83 364 83 165 q 183 663 83 562 q 444 764 282 764 q 571 743 512 764 l 590 736 l 597 750 q 618 764 604 764 l 715 764 q 722 750 729 764 l 684 684 q 806 381 806 579 q 706 81 806 183 q 444 -21 607 -21 q 318 0 379 -21 l 298 7 l 292 -7 q 271 -21 285 -21 l 174 -21 q 167 -7 157 -21 l 204 60 m 444 667 q 274 593 339 667 q 208 380 208 519 q 264 164 208 241 l 539 647 q 444 667 493 667 m 350 94 q 444 77 392 77 q 615 152 550 77 q 681 365 681 227 q 625 579 681 504 l 350 94 z "},"ù":{"ha":958,"x_min":139,"x_max":819,"o":"m 139 306 l 139 729 q 153 743 139 743 l 250 743 q 264 729 264 743 l 264 306 q 321 136 264 196 q 465 77 378 77 q 544 92 505 77 q 609 128 583 107 q 655 170 635 149 q 694 222 694 213 l 694 729 q 708 743 694 743 l 806 743 q 819 729 819 743 l 819 14 q 806 0 819 0 l 729 0 q 714 14 715 0 l 701 90 q 666 54 692 77 q 613 18 639 32 q 458 -21 545 -21 q 229 66 318 -21 q 139 306 139 153 m 289 1014 q 296 1028 279 1027 l 421 1028 q 441 1014 435 1028 l 532 833 q 525 819 538 820 l 456 819 q 435 833 446 819 l 289 1014 z "},"ú":{"ha":958,"x_min":139,"x_max":819,"o":"m 139 306 l 139 729 q 153 743 139 743 l 250 743 q 264 729 264 743 l 264 306 q 321 136 264 196 q 465 77 378 77 q 544 92 505 77 q 609 128 583 107 q 655 170 635 149 q 694 222 694 213 l 694 729 q 708 743 694 743 l 806 743 q 819 729 819 743 l 819 14 q 806 0 819 0 l 729 0 q 714 14 715 0 l 701 90 q 666 54 692 77 q 613 18 639 32 q 458 -21 545 -21 q 229 66 318 -21 q 139 306 139 153 m 412 833 l 503 1014 q 524 1028 509 1027 l 648 1028 q 656 1014 665 1028 l 510 833 q 489 819 499 820 l 419 819 q 412 833 406 820 z "},"û":{"ha":958,"x_min":139,"x_max":819,"o":"m 139 306 l 139 729 q 153 743 139 743 l 250 743 q 264 729 264 743 l 264 306 q 321 136 264 196 q 465 77 378 77 q 544 92 505 77 q 609 128 583 107 q 655 170 635 149 q 694 222 694 213 l 694 729 q 708 743 694 743 l 806 743 q 819 729 819 743 l 819 14 q 806 0 819 0 l 729 0 q 714 14 715 0 l 701 90 q 666 54 692 77 q 613 18 639 32 q 458 -21 545 -21 q 229 66 318 -21 q 139 306 139 153 m 268 833 l 368 986 q 399 1021 387 1014 q 424 1028 411 1028 l 521 1028 q 554 1015 543 1028 q 576 986 566 1002 l 676 833 q 669 819 686 820 l 603 819 q 579 833 593 819 l 472 945 l 366 833 q 342 819 352 820 l 275 819 q 268 833 258 820 z "},"ü":{"ha":958,"x_min":139,"x_max":819,"o":"m 139 306 l 139 729 q 153 743 139 743 l 250 743 q 264 729 264 743 l 264 306 q 321 136 264 196 q 465 77 378 77 q 544 92 505 77 q 609 128 583 107 q 655 170 635 149 q 694 222 694 213 l 694 729 q 708 743 694 743 l 806 743 q 819 729 819 743 l 819 14 q 806 0 819 0 l 729 0 q 714 14 715 0 l 701 90 q 666 54 692 77 q 613 18 639 32 q 458 -21 545 -21 q 229 66 318 -21 q 139 306 139 153 m 264 875 l 264 965 q 270 987 264 981 q 292 993 277 993 l 382 993 q 404 987 397 993 q 410 965 410 981 l 410 875 q 404 853 410 859 q 382 847 397 847 l 292 847 q 270 853 276 847 q 264 875 264 859 m 549 875 l 549 965 q 555 987 549 981 q 576 993 561 993 l 667 993 q 688 987 682 993 q 694 965 694 981 l 694 875 q 688 853 694 859 q 667 847 682 847 l 576 847 q 555 853 561 847 q 549 875 549 859 z "},"ý":{"ha":800,"x_min":29,"x_max":771,"o":"m 29 729 q 40 743 24 743 l 134 743 q 154 729 150 743 l 309 285 q 378 162 339 199 q 486 125 418 125 l 646 729 q 667 743 650 743 l 760 743 q 771 729 775 743 l 586 28 q 483 -184 547 -118 q 315 -250 419 -250 q 182 -229 243 -250 l 163 -222 q 149 -204 149 -215 l 149 -136 q 163 -125 149 -119 q 299 -153 232 -153 q 401 -114 366 -153 q 461 28 436 -75 q 293 85 353 28 q 183 286 233 142 l 29 729 m 361 833 l 452 1014 q 472 1028 458 1028 l 597 1028 q 604 1014 614 1028 l 458 833 q 437 819 447 819 l 368 819 q 361 833 354 819 z "},"þ":{"ha":909,"x_min":139,"x_max":827,"o":"m 139 -215 l 139 960 q 153 974 139 973 l 250 974 q 264 960 264 974 l 264 660 l 275 671 q 486 764 368 764 q 731 663 635 764 q 827 371 827 562 q 731 79 827 179 q 486 -21 635 -21 q 372 5 428 -21 q 290 57 317 31 l 264 83 l 264 -215 q 250 -229 264 -229 l 153 -229 q 139 -215 139 -229 m 264 222 q 292 182 264 215 q 346 127 321 149 q 479 77 408 77 q 640 150 578 77 q 701 370 701 224 q 640 592 701 517 q 479 667 579 667 q 302 573 382 667 q 264 521 264 528 l 264 222 z "},"ÿ":{"ha":800,"x_min":29,"x_max":771,"o":"m 29 729 q 40 743 24 743 l 134 743 q 154 729 150 743 l 309 285 q 378 162 339 199 q 486 125 418 125 l 646 729 q 667 743 650 743 l 760 743 q 771 729 775 743 l 586 28 q 483 -184 547 -118 q 315 -250 419 -250 q 182 -229 243 -250 l 163 -222 q 149 -204 149 -215 l 149 -136 q 163 -125 149 -119 q 299 -153 232 -153 q 401 -114 366 -153 q 461 28 436 -75 q 293 85 353 28 q 183 286 233 142 l 29 729 m 317 1007 q 345 979 345 1007 l 345 889 q 338 867 345 873 q 317 861 332 861 l 227 861 q 205 867 211 861 q 199 889 199 873 l 199 979 q 205 1001 199 994 q 227 1007 211 1007 l 317 1007 m 602 1007 q 629 979 629 1007 l 629 889 q 623 867 629 873 q 602 861 616 861 l 511 861 q 490 867 496 861 q 484 889 484 873 l 484 979 q 490 1001 484 994 q 511 1007 496 1007 l 602 1007 z "},"ħ":{"ha":917,"x_min":0,"x_max":819,"o":"m 0 757 l 0 827 q 14 840 0 840 l 139 840 l 139 958 q 153 972 139 972 l 250 972 q 264 958 264 972 l 264 840 l 492 840 q 505 827 505 840 l 505 757 q 492 743 505 743 l 264 743 l 264 534 q 297 566 269 543 q 351 602 325 589 q 500 639 418 639 q 730 552 640 639 q 819 313 819 465 l 819 14 q 806 0 819 0 l 708 0 q 694 14 694 0 l 694 313 q 637 482 694 422 q 493 542 581 542 q 374 508 432 542 q 290 444 317 473 q 264 410 264 414 l 264 14 q 250 0 264 0 l 153 0 q 139 14 139 0 l 139 743 l 14 743 q 0 757 0 743 z "},"Ĩ":{"ha":399,"x_min":-12,"x_max":411,"o":"m -12 1059 q 119 1229 7 1229 q 182 1206 153 1229 q 233 1161 211 1183 q 272 1139 256 1139 q 325 1208 311 1139 q 342 1222 326 1222 l 397 1222 q 411 1206 414 1222 q 279 1035 392 1035 q 216 1058 245 1035 q 165 1103 187 1080 q 126 1125 143 1125 q 74 1055 87 1125 q 57 1042 72 1042 l 1 1042 q -12 1059 -16 1042 m 136 14 l 136 958 q 150 972 136 972 l 248 972 q 261 958 261 972 l 261 14 q 248 0 261 0 l 150 0 q 136 14 136 0 z "},"ĩ":{"ha":427,"x_min":1,"x_max":425,"o":"m 1 829 q 134 1000 21 1000 q 247 932 182 1000 q 286 909 269 909 q 339 979 325 909 q 355 993 340 993 l 411 993 q 425 977 428 993 q 293 806 406 806 q 179 873 244 806 q 140 896 157 896 q 87 827 102 896 q 71 812 86 812 l 16 812 q 1 829 -1 812 m 150 14 q 150 729 150 14 q 164 743 150 743 l 261 743 q 275 729 275 743 l 275 14 q 261 0 275 0 l 164 0 q 150 14 150 0 z "},"ı":{"ha":403,"x_min":139,"x_max":264,"o":"m 139 14 l 139 729 q 153 743 139 743 l 250 743 q 264 729 264 743 l 264 14 q 250 0 264 0 l 153 0 q 139 14 139 0 z "},"ĳ":{"ha":799,"x_min":125,"x_max":673,"o":"m 125 945 q 153 972 125 972 l 243 972 q 264 966 258 972 q 271 945 271 960 l 271 854 q 264 833 271 839 q 243 827 258 827 l 153 827 q 131 833 138 827 q 125 854 125 839 l 125 945 m 135 14 l 135 729 q 149 743 135 743 l 245 743 q 260 729 260 743 l 260 14 q 245 0 260 0 l 149 0 q 135 14 135 0 m 232 -136 q 245 -125 232 -119 q 385 -153 315 -153 q 538 56 538 -153 l 538 729 q 551 743 538 743 l 648 743 q 663 729 663 743 l 663 56 q 591 -170 663 -89 q 399 -250 519 -250 q 265 -229 326 -250 l 245 -222 q 232 -204 232 -215 l 232 -136 m 528 945 q 555 972 528 972 l 646 972 q 667 966 661 972 q 673 945 673 960 l 673 854 q 667 833 673 839 q 646 827 661 827 l 555 827 q 534 833 541 827 q 528 854 528 839 l 528 945 z "},"Ĵ":{"ha":694,"x_min":28,"x_max":570,"o":"m 28 31 l 28 98 q 41 110 28 115 q 231 77 125 77 q 390 130 336 77 q 444 298 444 183 l 444 875 l 125 875 q 111 889 111 875 l 111 958 q 125 972 111 972 l 555 972 q 570 958 569 972 l 570 298 q 485 64 570 150 q 236 -21 400 -21 q 41 12 125 -21 q 28 31 28 20 m 136 1063 l 236 1215 q 292 1257 264 1257 l 389 1257 q 423 1244 413 1257 q 444 1215 433 1231 l 545 1063 q 538 1048 554 1049 l 471 1048 q 447 1063 461 1048 l 340 1174 l 233 1063 q 210 1048 220 1049 l 143 1048 q 136 1063 127 1049 z "},"ĵ":{"ha":450,"x_min":-125,"x_max":447,"o":"m -125 -136 q -111 -125 -125 -119 q 28 -153 -41 -153 q 180 56 180 -153 l 180 729 q 195 743 180 743 l 292 743 q 306 729 306 743 l 306 56 q 234 -170 306 -89 q 41 -250 163 -250 q -92 -229 -31 -250 l -111 -222 q -125 -204 -125 -215 l -125 -136 m 39 806 l 139 958 q 170 993 157 985 q 195 1000 182 1000 l 292 1000 q 325 987 314 1000 q 347 958 336 974 l 447 806 q 440 791 457 791 l 374 791 q 350 806 364 791 l 243 917 l 136 806 q 113 791 122 791 l 46 791 q 39 806 29 791 z "},"ķ":{"ha":843,"x_min":139,"x_max":798,"o":"m 139 14 l 139 958 q 153 972 139 972 l 250 972 q 264 958 264 972 l 264 424 l 334 424 q 514 528 447 424 l 640 729 q 661 743 650 743 l 768 743 q 778 726 789 743 l 646 514 q 472 382 574 399 q 660 236 578 367 l 798 17 q 787 0 808 0 l 681 0 q 660 14 669 0 l 528 222 q 347 326 461 326 l 264 326 l 264 14 q 250 0 264 0 l 153 0 q 139 14 139 0 m 366 -28 q 372 -6 366 -12 q 393 0 378 0 l 484 0 q 505 -6 498 0 q 511 -28 511 -12 l 511 -111 q 497 -160 511 -136 l 421 -292 l 366 -292 l 429 -146 l 393 -146 q 372 -140 378 -146 q 366 -118 366 -134 l 366 -28 z "},"ĸ":{"ha":843,"x_min":139,"x_max":798,"o":"m 139 14 l 139 729 q 153 743 139 743 l 250 743 q 264 729 264 743 l 264 424 l 334 424 q 514 528 448 424 l 640 729 q 661 743 650 743 l 768 743 q 778 726 789 743 l 646 514 q 472 382 574 399 q 660 236 578 366 l 798 17 q 787 0 808 0 l 681 0 q 660 14 670 0 l 528 222 q 347 326 461 327 l 264 326 l 264 14 q 250 0 264 0 l 153 0 q 139 14 139 0 z "},"ŀ":{"ha":611,"x_min":139,"x_max":524,"o":"m 139 14 l 139 958 q 153 972 139 972 l 250 972 q 264 958 264 972 l 264 14 q 250 0 264 0 l 153 0 q 139 14 139 0 m 378 441 l 378 532 q 384 553 378 547 q 406 559 390 559 l 496 559 q 517 553 511 559 q 524 532 524 547 l 524 441 q 517 420 524 426 q 496 414 511 414 l 406 414 q 384 420 390 414 q 378 441 378 426 z "},"Ł":{"ha":839,"x_min":0,"x_max":825,"o":"m 0 350 l 0 432 q 14 452 0 444 l 139 515 l 139 958 q 153 972 139 972 l 250 972 q 264 958 264 972 l 264 581 l 416 660 q 431 650 431 667 l 431 568 q 416 549 431 555 l 264 469 l 264 97 l 811 97 q 825 83 825 97 l 825 14 q 811 0 825 0 l 153 0 q 139 14 139 0 l 139 404 l 14 340 q 0 350 0 334 z "},"ł":{"ha":458,"x_min":14,"x_max":444,"o":"m 14 350 l 14 432 q 28 452 14 444 l 167 522 l 167 958 q 180 972 167 972 l 278 972 q 292 958 292 972 l 292 587 l 431 660 q 444 650 444 667 l 444 568 q 431 549 444 555 l 292 476 l 292 14 q 278 0 292 0 l 180 0 q 167 14 167 0 l 167 411 l 28 340 q 14 350 14 334 z "},"Ń":{"ha":1097,"x_min":139,"x_max":958,"o":"m 139 14 l 139 958 q 153 972 139 972 l 250 972 q 319 930 292 972 l 833 167 l 833 958 q 847 972 833 972 l 945 972 q 958 958 958 972 l 958 14 q 945 0 958 0 l 847 0 q 778 41 806 0 l 264 806 l 264 14 q 250 0 264 0 l 153 0 q 139 14 139 0 m 510 1035 l 600 1215 q 621 1229 607 1229 l 746 1229 q 753 1215 762 1229 l 607 1035 q 586 1021 596 1021 l 517 1021 q 510 1035 503 1021 z "},"ń":{"ha":945,"x_min":139,"x_max":819,"o":"m 139 14 l 139 729 q 153 743 139 743 l 229 743 q 244 729 243 743 l 257 653 q 292 688 265 665 q 345 726 319 711 q 500 764 412 764 q 730 677 640 764 q 819 437 819 590 l 819 14 q 806 0 819 0 l 708 0 q 694 14 694 0 l 694 437 q 637 607 694 547 q 493 667 581 667 q 414 651 453 667 q 349 615 375 636 q 304 573 323 595 q 264 521 264 530 l 264 14 q 250 0 264 0 l 153 0 q 139 14 139 0 m 440 840 l 530 1021 q 551 1035 538 1035 l 676 1035 q 684 1021 693 1035 l 538 840 q 517 827 526 827 l 447 827 q 440 840 433 827 z "},"Œ":{"ha":1367,"x_min":83,"x_max":1311,"o":"m 210 131 q 147 197 210 131 q 83 486 83 262 q 211 841 83 710 q 534 972 338 972 l 1297 972 q 1311 958 1311 972 l 1311 889 q 1297 875 1311 876 l 791 875 l 791 542 l 1200 542 q 1214 528 1213 542 l 1214 458 q 1200 444 1214 445 l 791 444 l 791 97 l 1297 97 q 1311 83 1311 97 l 1311 14 q 1297 0 1311 0 l 534 0 q 210 131 337 0 m 302 775 q 255 725 302 775 q 208 486 208 675 q 302 197 208 297 q 534 97 396 97 l 667 97 l 667 875 l 534 875 q 302 775 395 875 z "},"œ":{"ha":1458,"x_min":83,"x_max":1375,"o":"m 437 -21 q 182 81 281 -21 q 83 372 83 183 q 182 662 83 561 q 437 764 281 764 q 729 618 636 764 q 1028 764 822 764 q 1276 660 1177 764 q 1375 389 1375 557 l 1375 354 q 1348 326 1375 326 l 793 326 q 865 138 804 201 q 1014 75 926 75 q 1236 200 1166 75 q 1253 214 1244 214 l 1340 214 q 1354 197 1358 214 q 1240 38 1326 98 q 1014 -22 1154 -22 q 729 123 822 -22 q 437 -21 636 -21 m 438 667 q 388 667 438 667 q 273 593 338 667 q 208 373 208 519 q 273 152 208 227 q 438 77 338 77 q 602 152 538 77 q 667 373 667 227 q 602 593 667 519 q 438 667 538 667 m 793 424 l 1250 424 q 1178 600 1244 534 q 1022 667 1111 667 q 868 605 932 667 q 793 424 804 543 z "},"Ŕ":{"ha":990,"x_min":139,"x_max":945,"o":"m 139 14 l 139 958 q 153 972 139 972 l 542 972 q 808 894 713 972 q 903 673 903 815 q 830 498 903 572 q 625 403 757 424 q 695 369 664 393 q 740 327 726 345 q 778 271 754 309 l 945 17 q 933 0 956 0 l 819 0 q 799 14 808 0 l 632 271 q 437 375 566 375 l 264 375 l 264 14 q 250 0 264 0 l 153 0 q 139 14 139 0 m 264 472 l 542 472 q 713 524 649 472 q 778 674 778 576 q 713 823 778 771 q 542 875 648 875 l 264 875 l 264 472 m 428 1048 l 518 1229 q 539 1243 525 1242 l 664 1243 q 671 1229 681 1243 l 525 1048 q 504 1035 514 1035 l 435 1035 q 428 1048 421 1035 z "},"Ŗ":{"ha":990,"x_min":139,"x_max":945,"o":"m 139 14 l 139 958 q 153 972 139 972 l 542 972 q 808 894 713 972 q 903 673 903 815 q 830 498 903 572 q 625 403 757 424 q 695 369 664 393 q 740 327 726 345 q 778 271 754 309 l 945 17 q 933 0 956 0 l 819 0 q 799 14 808 0 l 632 271 q 437 375 566 375 l 264 375 l 264 14 q 250 0 264 0 l 153 0 q 139 14 139 0 m 264 472 l 542 472 q 713 524 649 472 q 778 674 778 576 q 713 823 778 771 q 542 875 648 875 l 264 875 l 264 472 m 431 -28 q 437 -6 431 -12 q 458 0 443 0 l 549 0 q 570 -6 564 0 q 576 -28 576 -12 l 576 -111 q 562 -160 576 -136 l 486 -292 l 431 -292 l 494 -146 l 458 -146 q 437 -140 443 -146 q 431 -118 431 -134 l 431 -28 z "},"ŗ":{"ha":653,"x_min":129,"x_max":632,"o":"m 157 -229 q 129 -201 129 -229 l 129 -111 q 135 -90 129 -96 q 157 -83 142 -83 l 248 -83 q 269 -90 262 -83 q 275 -111 275 -96 l 275 -195 q 261 -243 275 -220 l 184 -375 l 129 -375 l 193 -229 l 157 -229 m 139 14 l 139 729 q 153 743 139 743 l 229 743 q 244 729 243 743 l 257 611 l 268 627 q 302 662 275 636 q 362 706 329 688 q 449 741 395 725 q 562 757 503 757 l 618 757 q 632 743 632 757 l 632 660 q 618 646 632 646 l 576 646 q 452 628 509 646 q 361 587 395 611 q 272 497 292 536 l 264 479 l 264 14 q 250 0 264 0 l 153 0 q 139 14 139 0 z "},"Ř":{"ha":990,"x_min":139,"x_max":945,"o":"m 139 14 l 139 958 q 153 972 139 972 l 542 972 q 808 894 713 972 q 903 673 903 815 q 830 498 903 572 q 625 403 757 424 q 695 369 664 393 q 740 327 726 345 q 778 271 754 309 l 945 17 q 933 0 956 0 l 819 0 q 799 14 808 0 l 632 271 q 437 375 566 375 l 264 375 l 264 14 q 250 0 264 0 l 153 0 q 139 14 139 0 m 264 472 l 542 472 q 713 524 649 472 q 778 674 778 576 q 713 823 778 771 q 542 875 648 875 l 264 875 l 264 472 m 277 1229 q 283 1243 267 1242 l 350 1243 q 374 1229 359 1243 l 481 1118 l 587 1229 q 611 1243 601 1242 l 677 1243 q 685 1229 694 1243 l 585 1076 q 554 1042 566 1049 q 529 1035 542 1035 l 432 1035 q 398 1048 409 1035 q 376 1076 387 1061 l 277 1229 z "},"ř":{"ha":653,"x_min":139,"x_max":632,"o":"m 139 14 l 139 729 q 153 743 139 743 l 229 743 q 244 729 243 743 l 257 611 l 268 627 q 302 662 275 636 q 362 706 329 688 q 449 741 395 725 q 562 757 503 757 l 618 757 q 632 743 632 757 l 632 660 q 618 646 632 646 l 576 646 q 452 628 509 646 q 361 587 395 611 q 272 497 292 536 l 264 479 l 264 14 q 250 0 264 0 l 153 0 q 139 14 139 0 m 180 1014 q 187 1028 171 1028 l 254 1028 q 278 1014 264 1028 l 385 903 l 492 1014 q 515 1028 505 1028 l 582 1028 q 589 1014 599 1028 l 489 861 q 433 819 460 819 l 336 819 q 302 832 313 819 q 281 861 292 846 l 180 1014 z "},"Š":{"ha":937,"x_min":71,"x_max":868,"o":"m 71 248 q 85 264 68 264 l 172 264 q 189 250 184 264 q 486 77 248 77 q 677 121 611 77 q 743 231 743 165 q 702 337 743 297 q 571 403 660 378 l 328 472 q 92 729 92 540 q 191 919 92 846 q 457 993 290 993 q 727 921 624 993 q 856 725 829 850 q 842 708 859 708 l 754 708 q 737 722 742 708 q 460 896 679 896 q 280 851 345 896 q 216 740 216 807 q 258 635 216 673 q 390 570 300 596 l 633 500 q 868 243 868 433 q 766 52 868 125 q 486 -21 664 -21 q 203 50 309 -21 q 71 248 97 121 m 250 1243 q 257 1257 241 1257 l 323 1257 q 347 1243 333 1257 l 454 1132 l 561 1243 q 585 1257 574 1257 l 652 1257 q 659 1243 669 1257 l 558 1090 q 527 1056 539 1063 q 503 1048 515 1048 l 406 1048 q 372 1062 383 1048 q 350 1090 361 1075 l 250 1243 z "},"š":{"ha":821,"x_min":71,"x_max":751,"o":"m 71 199 q 85 215 66 216 l 172 215 q 189 201 180 215 q 432 77 258 77 q 578 106 530 77 q 627 179 627 135 q 594 251 627 223 q 481 298 561 279 l 307 340 q 85 555 85 395 q 168 705 85 647 q 395 764 250 764 q 628 704 539 764 q 745 545 717 644 q 730 528 749 528 l 643 528 q 627 542 635 528 q 397 667 557 667 q 257 637 304 667 q 210 563 210 607 q 242 492 210 519 q 355 444 275 464 l 529 403 q 751 187 751 350 q 667 37 751 96 q 432 -21 583 -21 q 190 38 281 -21 q 71 199 98 97 m 205 1014 q 212 1028 196 1027 l 279 1028 q 302 1014 289 1028 l 410 903 l 517 1014 q 541 1028 530 1027 l 607 1028 q 614 1014 624 1028 l 514 861 q 458 819 485 819 l 361 819 q 327 832 338 819 q 306 861 317 846 l 205 1014 z "},"Ÿ":{"ha":917,"x_min":16,"x_max":901,"o":"m 28 972 l 129 972 q 157 958 147 972 l 458 457 l 760 958 q 787 972 770 972 l 889 972 q 901 967 897 972 q 900 958 904 962 l 521 326 l 521 14 q 507 0 521 0 l 410 0 q 396 14 396 0 l 396 326 l 17 958 q 16 967 12 962 q 28 972 20 972 m 243 1153 q 271 1181 243 1181 l 361 1181 q 382 1174 376 1181 q 389 1153 389 1168 l 389 1063 q 382 1041 389 1047 q 361 1035 376 1035 l 271 1035 q 249 1041 256 1035 q 243 1063 243 1047 l 243 1153 m 528 1153 q 555 1181 528 1181 l 646 1181 q 667 1174 661 1181 q 673 1153 673 1168 l 673 1063 q 667 1041 673 1047 q 646 1035 661 1035 l 555 1035 q 534 1041 541 1035 q 528 1063 528 1047 l 528 1153 z "},"Ž":{"ha":889,"x_min":69,"x_max":827,"o":"m 69 14 l 69 62 q 104 139 69 90 l 673 875 l 83 875 q 69 889 69 875 l 69 958 q 83 972 69 972 l 812 972 q 827 958 827 972 l 827 909 q 791 833 827 882 l 221 97 l 812 97 q 827 83 827 97 l 827 14 q 812 0 827 0 l 83 0 q 69 14 69 0 m 240 1229 q 248 1243 231 1243 l 314 1243 q 338 1229 323 1243 l 444 1118 l 551 1229 q 575 1243 566 1243 l 642 1243 q 648 1229 659 1243 l 549 1076 q 517 1042 528 1048 q 493 1035 505 1035 l 396 1035 q 362 1048 373 1035 q 340 1076 351 1061 l 240 1229 z "},"ž":{"ha":775,"x_min":69,"x_max":705,"o":"m 69 14 l 69 77 q 78 100 69 92 l 546 646 l 83 646 q 69 660 69 646 l 69 729 q 83 743 69 743 l 692 743 q 705 729 705 743 l 705 667 q 697 643 705 652 l 227 97 l 692 97 q 705 83 705 97 l 705 14 q 692 0 705 0 l 83 0 q 69 14 69 0 m 182 1028 q 189 1042 172 1042 l 256 1042 q 279 1028 265 1042 l 386 917 l 493 1028 q 517 1042 507 1042 l 583 1042 q 590 1028 600 1042 l 490 875 q 458 840 470 847 q 435 833 447 833 l 338 833 q 304 847 315 833 q 282 875 293 860 l 182 1028 z "},"ƒ":{"ha":648,"x_min":-207,"x_max":703,"o":"m -207 -204 l -196 -136 q -179 -125 -193 -119 q -54 -153 -115 -153 q 110 28 78 -153 l 199 528 l 102 528 q 89 542 88 528 l 102 611 q 118 625 103 625 l 215 625 l 227 688 q 338 912 252 832 q 545 993 424 993 q 692 965 628 993 q 703 947 704 958 l 690 879 q 675 868 688 861 q 541 896 610 896 q 351 688 388 896 l 340 625 l 590 625 q 602 611 602 625 l 589 542 q 574 528 587 528 l 323 528 l 235 28 q -62 -250 184 -250 q -179 -229 -124 -250 l -197 -222 q -207 -204 -210 -215 z "},"ˆ":{"ha":414,"x_min":3,"x_max":411,"o":"m 3 778 l 103 930 q 134 965 122 958 q 158 972 146 972 l 256 972 q 289 959 279 972 q 311 930 300 946 l 411 778 q 404 764 420 764 l 338 764 q 314 778 328 764 l 207 889 l 100 778 q 77 764 86 764 l 9 764 q 3 778 -7 764 z "},"ˇ":{"ha":414,"x_min":3,"x_max":411,"o":"m 3 958 q 9 972 -7 972 l 77 972 q 100 958 86 972 l 207 847 l 314 958 q 338 972 328 972 l 404 972 q 411 958 421 972 l 311 806 q 256 764 282 764 l 158 764 q 124 777 135 764 q 103 806 114 790 l 3 958 z "},"˚":{"ha":334,"x_min":0,"x_max":334,"o":"m 46 715 q 0 826 0 758 q 46 937 0 895 q 166 979 93 979 q 287 937 240 979 q 334 826 334 895 q 287 716 334 758 q 166 673 240 673 q 46 715 93 673 m 220 881 q 209 892 220 881 q 167 903 197 903 q 113 881 136 903 q 90 826 90 859 q 113 772 90 794 q 167 750 136 750 q 220 772 197 750 q 243 826 243 794 q 220 881 243 859 z "},"˜":{"ha":427,"x_min":1,"x_max":425,"o":"m 1 787 q 134 958 21 958 q 247 891 183 958 q 286 868 269 868 q 339 937 325 868 q 355 951 340 951 l 411 951 q 425 935 428 951 q 293 764 406 764 q 231 786 260 764 q 179 831 201 808 q 140 854 157 854 q 87 785 102 854 q 71 771 86 771 l 16 771 q 1 787 -1 771 z "},"–":{"ha":833,"x_min":56,"x_max":778,"o":"m 56 410 l 56 479 q 69 493 56 493 l 764 493 q 778 479 778 493 l 778 410 q 764 396 778 396 l 69 396 q 56 410 56 396 z "},"—":{"ha":1048,"x_min":56,"x_max":993,"o":"m 56 410 l 56 479 q 69 493 56 493 l 979 493 q 993 479 993 493 l 993 410 q 979 396 993 396 l 69 396 q 56 410 56 396 z "},"‘":{"ha":340,"x_min":97,"x_max":243,"o":"m 97 715 l 97 799 q 111 847 97 823 l 187 979 l 243 979 l 179 833 l 215 833 q 237 827 231 833 q 243 806 243 821 l 243 715 q 237 694 243 700 q 215 688 231 688 l 125 688 q 103 694 110 688 q 97 715 97 700 z "},"’":{"ha":340,"x_min":97,"x_max":243,"o":"m 97 951 q 125 979 97 979 l 215 979 q 237 973 231 979 q 243 951 243 966 l 243 868 q 229 819 243 843 l 153 688 l 97 688 l 161 833 l 125 833 q 103 840 110 833 q 97 861 97 846 l 97 951 z "},"‚":{"ha":340,"x_min":97,"x_max":243,"o":"m 97 111 q 125 139 97 139 l 215 139 q 237 133 231 139 q 243 111 243 126 l 243 28 q 229 -21 243 3 l 153 -153 l 97 -153 l 161 -7 l 125 -7 q 103 -1 110 -7 q 97 21 97 5 l 97 111 z "},"“":{"ha":570,"x_min":97,"x_max":472,"o":"m 97 715 l 97 799 q 111 847 97 823 l 187 979 l 243 979 l 179 833 l 215 833 q 237 827 231 833 q 243 806 243 821 l 243 715 q 237 694 243 700 q 215 688 231 688 l 125 688 q 103 694 110 688 q 97 715 97 700 m 326 715 l 326 799 q 340 847 326 823 l 416 979 l 472 979 l 408 833 l 444 833 q 466 827 460 833 q 472 806 472 821 l 472 715 q 466 694 472 700 q 444 688 460 688 l 354 688 q 333 694 339 688 q 326 715 326 700 z "},"”":{"ha":570,"x_min":97,"x_max":472,"o":"m 97 951 q 125 979 97 979 l 215 979 q 237 973 231 979 q 243 951 243 966 l 243 868 q 229 819 243 843 l 153 688 l 97 688 l 161 833 l 125 833 q 103 840 110 833 q 97 861 97 846 l 97 951 m 326 951 q 354 979 326 979 l 444 979 q 466 973 460 979 q 472 951 472 966 l 472 868 q 458 819 472 843 l 382 688 l 326 688 l 390 833 l 354 833 q 333 840 339 833 q 326 861 326 846 l 326 951 z "},"„":{"ha":570,"x_min":97,"x_max":472,"o":"m 97 111 q 125 139 97 139 l 215 139 q 237 133 231 139 q 243 111 243 126 l 243 28 q 229 -21 243 3 l 153 -153 l 97 -153 l 161 -7 l 125 -7 q 103 -1 110 -7 q 97 21 97 5 l 97 111 m 326 111 q 354 139 326 139 l 444 139 q 466 133 460 139 q 472 111 472 126 l 472 28 q 458 -21 472 3 l 382 -153 l 326 -153 l 390 -7 l 354 -7 q 333 -1 339 -7 q 326 21 326 5 l 326 111 z "},"†":{"ha":736,"x_min":56,"x_max":681,"o":"m 56 570 l 56 639 q 69 653 56 652 l 306 653 l 306 958 q 319 972 306 972 l 416 972 q 431 958 430 972 l 431 653 l 667 653 q 681 639 680 653 l 681 570 q 667 555 681 556 l 431 555 l 431 -216 q 416 -231 431 -230 l 319 -231 q 306 -216 306 -231 l 306 555 l 69 555 q 56 570 56 556 z "},"‡":{"ha":736,"x_min":56,"x_max":681,"o":"m 56 61 l 56 131 q 69 144 56 144 l 306 144 l 306 597 l 69 597 q 56 611 56 597 l 56 681 q 69 694 56 694 l 306 694 l 306 958 q 319 972 306 972 l 416 972 q 431 958 430 972 l 431 694 l 667 694 q 681 681 680 694 l 681 611 q 667 597 681 597 l 431 597 l 431 144 l 667 144 q 681 131 680 144 l 681 61 q 667 47 681 47 l 431 47 l 431 -216 q 416 -231 431 -230 l 319 -231 q 306 -216 306 -231 l 306 47 l 69 47 q 56 61 56 47 z "},"•":{"ha":611,"x_min":139,"x_max":472,"o":"m 188 369 q 164 393 188 369 q 139 486 139 418 q 188 604 139 554 q 306 653 237 653 q 423 604 374 653 q 472 486 472 554 q 423 369 472 418 q 306 319 374 319 q 188 369 237 319 z "},"…":{"ha":924,"x_min":97,"x_max":827,"o":"m 97 111 q 125 139 97 139 l 215 139 q 237 133 231 139 q 243 111 243 126 l 243 21 q 237 -1 243 5 q 215 -7 231 -7 l 125 -7 q 103 -1 110 -7 q 97 21 97 5 l 97 111 m 507 139 q 534 111 534 139 l 534 21 q 528 -1 534 5 q 507 -7 522 -7 l 416 -7 q 395 -1 401 -7 q 389 21 389 5 l 389 111 q 416 139 389 139 l 507 139 m 799 139 q 827 111 827 139 l 827 21 q 820 -1 827 5 q 799 -7 814 -7 l 708 -7 q 687 -1 693 -7 q 681 21 681 5 l 681 111 q 708 139 681 139 l 799 139 z "},"‰":{"ha":1771,"x_min":56,"x_max":1715,"o":"m 122 548 q 89 582 122 548 q 56 736 56 616 q 122 924 56 856 q 299 993 189 993 q 475 924 408 993 q 542 736 542 856 q 475 548 542 616 q 299 479 408 479 q 122 548 189 479 m 203 866 q 185 844 203 866 q 167 736 167 822 q 203 606 167 650 q 298 562 239 562 q 394 606 358 562 q 431 736 431 650 q 394 866 431 822 q 298 909 358 909 q 203 866 239 909 m 319 14 l 799 958 q 819 972 806 972 l 917 972 q 924 958 930 972 l 444 14 q 424 0 437 0 l 326 0 q 319 14 313 0 m 754 48 q 721 82 754 48 q 688 236 688 117 q 754 424 688 355 q 930 493 821 493 q 1107 424 1040 493 q 1174 236 1174 355 q 1107 48 1174 117 q 930 -21 1040 -21 q 754 48 821 -21 m 835 366 q 817 344 835 366 q 799 236 799 322 q 835 106 799 150 q 930 62 871 62 q 1026 106 990 62 q 1063 236 1063 150 q 1026 366 1063 322 q 930 410 990 410 q 835 366 871 410 m 1296 48 q 1262 82 1296 48 q 1229 236 1229 117 q 1296 424 1229 355 q 1472 493 1362 493 q 1649 424 1582 493 q 1715 236 1715 355 q 1649 48 1715 117 q 1472 -21 1582 -21 q 1296 48 1362 -21 m 1376 366 q 1358 344 1376 366 q 1340 236 1340 322 q 1376 106 1340 150 q 1472 62 1413 62 q 1568 106 1532 62 q 1604 236 1604 150 q 1568 366 1604 322 q 1472 410 1532 410 q 1376 366 1413 410 z "},"‹":{"ha":570,"x_min":28,"x_max":500,"o":"m 28 340 l 28 382 q 69 444 28 421 l 486 688 q 500 681 500 697 l 500 583 q 486 562 500 572 l 138 361 l 486 160 q 500 139 500 150 l 500 41 q 486 35 500 25 l 69 278 q 28 340 28 302 z "},"›":{"ha":570,"x_min":69,"x_max":542,"o":"m 69 41 l 69 139 q 83 160 69 150 l 432 361 l 83 562 q 69 583 69 572 l 69 681 q 83 688 69 697 l 500 444 q 542 382 542 421 l 542 340 q 500 278 542 302 l 83 35 q 69 41 69 25 z "},"€":{"ha":1079,"x_min":29,"x_max":1008,"o":"m 279 486 l 281 437 l 673 437 q 688 424 692 437 l 673 368 q 654 354 669 355 l 292 354 q 408 146 321 216 q 612 77 494 77 q 890 264 835 77 q 907 278 895 277 l 994 278 q 1008 261 1011 278 q 880 53 982 126 q 608 -21 778 -21 q 319 77 439 -21 q 165 354 199 175 l 43 354 q 29 368 25 355 l 43 424 q 64 437 47 437 l 155 437 q 154 486 154 453 q 155 536 154 519 l 71 536 q 57 550 52 536 l 71 606 q 92 619 75 619 l 165 619 q 318 895 199 797 q 604 993 437 993 q 873 919 771 993 q 1002 711 975 846 q 987 694 1004 694 l 900 694 q 884 708 888 694 q 606 896 828 895 q 406 826 492 896 q 292 619 321 755 l 701 619 q 715 606 720 619 l 701 550 q 682 536 697 536 l 281 536 q 279 486 279 519 z "},"™":{"ha":1221,"x_min":28,"x_max":1137,"o":"m 28 903 l 28 958 q 41 972 28 972 l 484 972 q 497 958 497 972 l 497 903 q 484 889 497 889 l 311 889 l 311 500 q 297 486 311 486 l 214 486 q 200 500 200 486 l 200 889 l 41 889 q 28 903 28 889 m 554 500 l 554 958 q 568 972 554 972 l 631 972 q 684 937 667 972 l 846 653 l 1008 937 q 1061 972 1025 972 l 1124 972 q 1137 958 1137 972 l 1137 500 q 1124 486 1137 486 l 1040 486 q 1026 500 1027 486 l 1026 785 l 908 576 l 896 557 q 863 542 886 542 l 829 542 q 803 549 812 542 q 783 576 794 557 l 665 785 l 665 500 q 652 486 665 486 l 568 486 q 554 500 554 486 z "},"":{"ha":743,"x_min":0,"x_max":743,"o":"m 0 743 l 743 743 l 743 0 l 0 0 l 0 743 z "}}}
